%TF.GenerationSoftware,KiCad,Pcbnew,6.0.9*%
%TF.CreationDate,2023-02-18T01:22:43-08:00*%
%TF.ProjectId,effectpedal,65666665-6374-4706-9564-616c2e6b6963,rev?*%
%TF.SameCoordinates,Original*%
%TF.FileFunction,Copper,L2,Bot*%
%TF.FilePolarity,Positive*%
%FSLAX46Y46*%
G04 Gerber Fmt 4.6, Leading zero omitted, Abs format (unit mm)*
G04 Created by KiCad (PCBNEW 6.0.9) date 2023-02-18 01:22:43*
%MOMM*%
%LPD*%
G01*
G04 APERTURE LIST*
G04 Aperture macros list*
%AMRoundRect*
0 Rectangle with rounded corners*
0 $1 Rounding radius*
0 $2 $3 $4 $5 $6 $7 $8 $9 X,Y pos of 4 corners*
0 Add a 4 corners polygon primitive as box body*
4,1,4,$2,$3,$4,$5,$6,$7,$8,$9,$2,$3,0*
0 Add four circle primitives for the rounded corners*
1,1,$1+$1,$2,$3*
1,1,$1+$1,$4,$5*
1,1,$1+$1,$6,$7*
1,1,$1+$1,$8,$9*
0 Add four rect primitives between the rounded corners*
20,1,$1+$1,$2,$3,$4,$5,0*
20,1,$1+$1,$4,$5,$6,$7,0*
20,1,$1+$1,$6,$7,$8,$9,0*
20,1,$1+$1,$8,$9,$2,$3,0*%
G04 Aperture macros list end*
%TA.AperFunction,ComponentPad*%
%ADD10R,1.700000X1.700000*%
%TD*%
%TA.AperFunction,ComponentPad*%
%ADD11O,1.700000X1.700000*%
%TD*%
%TA.AperFunction,SMDPad,CuDef*%
%ADD12RoundRect,0.250000X-0.475000X0.250000X-0.475000X-0.250000X0.475000X-0.250000X0.475000X0.250000X0*%
%TD*%
%TA.AperFunction,SMDPad,CuDef*%
%ADD13RoundRect,0.250000X0.475000X-0.250000X0.475000X0.250000X-0.475000X0.250000X-0.475000X-0.250000X0*%
%TD*%
%TA.AperFunction,ViaPad*%
%ADD14C,0.800000*%
%TD*%
%TA.AperFunction,Conductor*%
%ADD15C,0.220000*%
%TD*%
%TA.AperFunction,Conductor*%
%ADD16C,0.254000*%
%TD*%
G04 APERTURE END LIST*
D10*
%TO.P,J19,1,Pin_1*%
%TO.N,GND2*%
X62968500Y-173990000D03*
D11*
%TO.P,J19,2,Pin_2*%
X62968500Y-176530000D03*
%TO.P,J19,3,Pin_3*%
X62968500Y-179070000D03*
%TO.P,J19,4,Pin_4*%
%TO.N,/LEDs/LED_RST*%
X62968500Y-181610000D03*
%TD*%
D12*
%TO.P,C17,1*%
%TO.N,/LEDs/LED_3V3*%
X147677500Y-169230000D03*
%TO.P,C17,2*%
%TO.N,GND2*%
X147677500Y-171130000D03*
%TD*%
D10*
%TO.P,J20,1,Pin_1*%
%TO.N,GND2*%
X149328500Y-173990000D03*
D11*
%TO.P,J20,2,Pin_2*%
%TO.N,/LEDs/LED_3V3*%
X149328500Y-176530000D03*
%TO.P,J20,3,Pin_3*%
%TO.N,/LEDs/LED_SDA*%
X149328500Y-179070000D03*
%TO.P,J20,4,Pin_4*%
%TO.N,/LEDs/LED_SCL*%
X149328500Y-181610000D03*
%TD*%
D13*
%TO.P,C18,1*%
%TO.N,Net-(C18-Pad1)*%
X149836500Y-171130000D03*
%TO.P,C18,2*%
%TO.N,GND2*%
X149836500Y-169230000D03*
%TD*%
D14*
%TO.N,/LEDs/LED_3V3*%
X143867500Y-172974000D03*
%TO.N,Net-(C18-Pad1)*%
X147804500Y-172720000D03*
%TO.N,Net-(D17-Pad1)*%
X70080500Y-177673000D03*
X76811500Y-177673000D03*
X72366500Y-177673000D03*
X140565500Y-175911497D03*
X74525500Y-177673000D03*
X81383500Y-177673000D03*
X67794500Y-177673000D03*
X83669500Y-177673000D03*
X79097500Y-177680500D03*
%TO.N,Net-(D17-Pad2)*%
X140057500Y-173609000D03*
X104243500Y-172085000D03*
X122531500Y-172085000D03*
X85955500Y-171958000D03*
X67667500Y-172085000D03*
%TO.N,Net-(D18-Pad2)*%
X141073500Y-173355000D03*
X88241500Y-171629500D03*
X124817500Y-171629500D03*
X69953500Y-171629500D03*
X106529500Y-171629500D03*
%TO.N,Net-(D19-Pad2)*%
X127103500Y-171209500D03*
X72239500Y-171209500D03*
X90527500Y-171209500D03*
X141835500Y-172593000D03*
X108815500Y-171209500D03*
%TO.N,Net-(D20-Pad2)*%
X92813500Y-170789500D03*
X111101500Y-170789500D03*
X129389500Y-170789500D03*
X142724500Y-171577000D03*
X74525500Y-170789500D03*
%TO.N,Net-(D21-Pad2)*%
X131675500Y-170369500D03*
X143486500Y-170688000D03*
X95099500Y-170369500D03*
X113387500Y-170369500D03*
X76811500Y-170369500D03*
%TO.N,Net-(D22-Pad2)*%
X133961500Y-169949500D03*
X97385500Y-169926000D03*
X79097500Y-169949500D03*
X144375500Y-170053000D03*
X115673500Y-169949500D03*
%TO.N,Net-(D23-Pad2)*%
X145391500Y-169672000D03*
X81383500Y-169529500D03*
X136247500Y-169529500D03*
X117959500Y-169529500D03*
X99671500Y-169529500D03*
%TO.N,Net-(D24-Pad2)*%
X146280500Y-169037000D03*
X83653337Y-169109500D03*
X120245500Y-169109500D03*
X138533500Y-169109500D03*
X101930855Y-169109500D03*
%TO.N,Net-(D25-Pad1)*%
X90535000Y-177680500D03*
X88249000Y-177680500D03*
X92843464Y-177680500D03*
X99798500Y-177680500D03*
X101957500Y-177673000D03*
X97385500Y-177673000D03*
X85955500Y-177680500D03*
X140565500Y-176911000D03*
X95099500Y-177673000D03*
%TO.N,Net-(D33-Pad1)*%
X113387500Y-177673000D03*
X115703464Y-177680500D03*
X104243500Y-177673000D03*
X108815500Y-177680500D03*
X118094000Y-177680500D03*
X106656500Y-177673000D03*
X111228500Y-177680500D03*
X140569443Y-177943557D03*
X120245500Y-177680500D03*
%TO.N,Net-(D41-Pad1)*%
X129436000Y-177626500D03*
X138533500Y-177626500D03*
X122599647Y-177626500D03*
X136247500Y-177626500D03*
X131722000Y-177626500D03*
X133961500Y-177626500D03*
X124817500Y-177626500D03*
X127150000Y-177626500D03*
%TO.N,Net-(D57-Pad1)*%
X144375500Y-180340000D03*
X145823739Y-180899239D03*
%TO.N,Net-(D73-Pad1)*%
X146534500Y-179578000D03*
X140184500Y-180340000D03*
%TO.N,/LEDs/LED_RST*%
X147672057Y-176712572D03*
X146915500Y-180975000D03*
%TD*%
D15*
%TO.N,/LEDs/LED_3V3*%
X146407500Y-170500000D02*
X147677500Y-169230000D01*
X147042500Y-172974000D02*
X147042500Y-174244000D01*
X146407500Y-172974000D02*
X146407500Y-170500000D01*
X146407500Y-172974000D02*
X147042500Y-172974000D01*
X143867500Y-172974000D02*
X146407500Y-172974000D01*
X147042500Y-174244000D02*
X149328500Y-176530000D01*
%TO.N,Net-(C18-Pad1)*%
X149394500Y-171130000D02*
X149836500Y-171130000D01*
X147804500Y-172720000D02*
X149394500Y-171130000D01*
%TO.N,Net-(D17-Pad1)*%
X140565500Y-175911497D02*
X140549003Y-175895000D01*
X76811500Y-177673000D02*
X74779500Y-177673000D01*
X74779500Y-177673000D02*
X74525500Y-177673000D01*
X74525500Y-177673000D02*
X72366500Y-177673000D01*
X85447500Y-175895000D02*
X83669500Y-177673000D01*
X79105000Y-177673000D02*
X79097500Y-177680500D01*
X70080500Y-177673000D02*
X67794500Y-177673000D01*
X83669500Y-177673000D02*
X81383500Y-177673000D01*
X79090000Y-177673000D02*
X76811500Y-177673000D01*
X140549003Y-175895000D02*
X85447500Y-175895000D01*
X79351500Y-177673000D02*
X79105000Y-177673000D01*
X81383500Y-177673000D02*
X79351500Y-177673000D01*
X79097500Y-177680500D02*
X79090000Y-177673000D01*
X72366500Y-177673000D02*
X70080500Y-177673000D01*
%TO.N,Net-(D17-Pad2)*%
X122531500Y-172085000D02*
X122277500Y-172339000D01*
X140057500Y-173609000D02*
X140057500Y-172720000D01*
X123674500Y-172339000D02*
X122785500Y-172339000D01*
X122277500Y-172339000D02*
X105259500Y-172339000D01*
X85955500Y-171958000D02*
X85701500Y-172212000D01*
X103989500Y-172339000D02*
X86336500Y-172339000D01*
X105259500Y-172339000D02*
X104497500Y-172339000D01*
X104243500Y-172085000D02*
X103989500Y-172339000D01*
X122785500Y-172339000D02*
X122531500Y-172085000D01*
X139676500Y-172339000D02*
X123674500Y-172339000D01*
X67921500Y-172339000D02*
X67667500Y-172085000D01*
X140057500Y-172720000D02*
X139676500Y-172339000D01*
X85574500Y-172339000D02*
X67921500Y-172339000D01*
X85701500Y-172212000D02*
X85574500Y-172339000D01*
X104497500Y-172339000D02*
X104243500Y-172085000D01*
X86336500Y-172339000D02*
X85955500Y-171958000D01*
%TO.N,Net-(D18-Pad2)*%
X85661408Y-171248000D02*
X84990408Y-171919000D01*
X70243000Y-171919000D02*
X69953500Y-171629500D01*
X87860000Y-171248000D02*
X85661408Y-171248000D01*
X123369592Y-171919000D02*
X122825592Y-171375000D01*
X104804000Y-171629500D02*
X104549500Y-171375000D01*
X88241500Y-171629500D02*
X87860000Y-171248000D01*
X139850470Y-171919000D02*
X125960500Y-171919000D01*
X124528000Y-171919000D02*
X123369592Y-171919000D01*
X106529500Y-171629500D02*
X104804000Y-171629500D01*
X125960500Y-171919000D02*
X125107000Y-171919000D01*
X88531000Y-171919000D02*
X88241500Y-171629500D01*
X106819000Y-171919000D02*
X106529500Y-171629500D01*
X141073500Y-173355000D02*
X141073500Y-173142030D01*
X121693408Y-171919000D02*
X106819000Y-171919000D01*
X122825592Y-171375000D02*
X122237408Y-171375000D01*
X103949408Y-171375000D02*
X103405408Y-171919000D01*
X104549500Y-171375000D02*
X103949408Y-171375000D01*
X124817500Y-171629500D02*
X124528000Y-171919000D01*
X84990408Y-171919000D02*
X70243000Y-171919000D01*
X122237408Y-171375000D02*
X121693408Y-171919000D01*
X103405408Y-171919000D02*
X88531000Y-171919000D01*
X125107000Y-171919000D02*
X124817500Y-171629500D01*
X141073500Y-173142030D02*
X139850470Y-171919000D01*
%TO.N,Net-(D19-Pad2)*%
X127738500Y-171499000D02*
X127393000Y-171499000D01*
X103810938Y-170919500D02*
X103231438Y-171499000D01*
X72529000Y-171499000D02*
X72239500Y-171209500D01*
X90527500Y-171209500D02*
X90146000Y-170828000D01*
X109105000Y-171499000D02*
X108815500Y-171209500D01*
X85487438Y-170828000D02*
X84816438Y-171499000D01*
X122046000Y-170919500D02*
X121466500Y-171499000D01*
X140741500Y-171499000D02*
X127738500Y-171499000D01*
X103231438Y-171499000D02*
X90817000Y-171499000D01*
X127103500Y-171209500D02*
X126814000Y-171499000D01*
X90146000Y-170828000D02*
X85487438Y-170828000D01*
X84816438Y-171499000D02*
X72529000Y-171499000D01*
X141835500Y-172593000D02*
X140741500Y-171499000D01*
X127393000Y-171499000D02*
X127103500Y-171209500D01*
X126814000Y-171499000D02*
X126234500Y-170919500D01*
X90817000Y-171499000D02*
X90527500Y-171209500D01*
X108525500Y-170919500D02*
X103810938Y-170919500D01*
X121466500Y-171499000D02*
X109105000Y-171499000D01*
X126234500Y-170919500D02*
X122046000Y-170919500D01*
X108815500Y-171209500D02*
X108525500Y-170919500D01*
%TO.N,Net-(D20-Pad2)*%
X140956500Y-171079000D02*
X130278500Y-171079000D01*
X111391000Y-171079000D02*
X111101500Y-170789500D01*
X129679000Y-171079000D02*
X129389500Y-170789500D01*
X103636968Y-170499500D02*
X103057468Y-171079000D01*
X142724500Y-171577000D02*
X141454500Y-171577000D01*
X129389500Y-170789500D02*
X129099500Y-170499500D01*
X92813500Y-170789500D02*
X92432000Y-170408000D01*
X84642468Y-171079000D02*
X74815000Y-171079000D01*
X129099500Y-170499500D02*
X121831000Y-170499500D01*
X85313468Y-170408000D02*
X84642468Y-171079000D01*
X121831000Y-170499500D02*
X121251500Y-171079000D01*
X93103000Y-171079000D02*
X92813500Y-170789500D01*
X111101500Y-170789500D02*
X110811500Y-170499500D01*
X92432000Y-170408000D02*
X85313468Y-170408000D01*
X74815000Y-171079000D02*
X74525500Y-170789500D01*
X141454500Y-171577000D02*
X140956500Y-171079000D01*
X130278500Y-171079000D02*
X129679000Y-171079000D01*
X103057468Y-171079000D02*
X93103000Y-171079000D01*
X110811500Y-170499500D02*
X103636968Y-170499500D01*
X121251500Y-171079000D02*
X111391000Y-171079000D01*
%TO.N,Net-(D21-Pad2)*%
X129797000Y-170079500D02*
X121657030Y-170079500D01*
X84460500Y-170659000D02*
X77101000Y-170659000D01*
X130024500Y-170307000D02*
X129797000Y-170079500D01*
X121657030Y-170079500D02*
X121077530Y-170659000D01*
X77101000Y-170659000D02*
X76811500Y-170369500D01*
X94718000Y-169988000D02*
X85131500Y-169988000D01*
X113387500Y-170369500D02*
X113071000Y-170053000D01*
X103489498Y-170053000D02*
X102883498Y-170659000D01*
X95389000Y-170659000D02*
X95099500Y-170369500D01*
X131675500Y-170369500D02*
X131613000Y-170307000D01*
X121077530Y-170659000D02*
X113677000Y-170659000D01*
X85131500Y-169988000D02*
X84460500Y-170659000D01*
X102883498Y-170659000D02*
X95389000Y-170659000D01*
X113677000Y-170659000D02*
X113387500Y-170369500D01*
X113071000Y-170053000D02*
X103489498Y-170053000D01*
X143457500Y-170659000D02*
X133072500Y-170659000D01*
X131613000Y-170307000D02*
X130024500Y-170307000D01*
X133072500Y-170659000D02*
X131965000Y-170659000D01*
X95099500Y-170369500D02*
X94718000Y-169988000D01*
X131965000Y-170659000D02*
X131675500Y-170369500D01*
X143486500Y-170688000D02*
X143457500Y-170659000D01*
%TO.N,Net-(D22-Pad2)*%
X142604500Y-170046000D02*
X142411500Y-170239000D01*
X79387000Y-170239000D02*
X79097500Y-169949500D01*
X142604500Y-169978000D02*
X142604500Y-170046000D01*
X97698500Y-170239000D02*
X97385500Y-169926000D01*
X84325015Y-170200515D02*
X84286530Y-170239000D01*
X134251000Y-170239000D02*
X133961500Y-169949500D01*
X103266500Y-169633000D02*
X102660500Y-170239000D01*
X115673500Y-169949500D02*
X115357000Y-169633000D01*
X102660500Y-170239000D02*
X97698500Y-170239000D01*
X115963000Y-170239000D02*
X115673500Y-169949500D01*
X97385500Y-169926000D02*
X97027500Y-169568000D01*
X97027500Y-169568000D02*
X84957530Y-169568000D01*
X84286530Y-170239000D02*
X79387000Y-170239000D01*
X142411500Y-170239000D02*
X134251000Y-170239000D01*
X120903560Y-170239000D02*
X115963000Y-170239000D01*
X144300500Y-169978000D02*
X142604500Y-169978000D01*
X115357000Y-169633000D02*
X103266500Y-169633000D01*
X144375500Y-170053000D02*
X144300500Y-169978000D01*
X133961500Y-169949500D02*
X133671500Y-169659500D01*
X121483060Y-169659500D02*
X120903560Y-170239000D01*
X84957530Y-169568000D02*
X84325015Y-170200515D01*
X133671500Y-169659500D02*
X121483060Y-169659500D01*
%TO.N,Net-(D23-Pad2)*%
X117643000Y-169213000D02*
X103092530Y-169213000D01*
X84783560Y-169148000D02*
X84155030Y-169776530D01*
X117959500Y-169529500D02*
X117643000Y-169213000D01*
X136537000Y-169819000D02*
X136247500Y-169529500D01*
X84155030Y-169776530D02*
X84112560Y-169819000D01*
X103092530Y-169213000D02*
X102486530Y-169819000D01*
X142089500Y-169819000D02*
X136537000Y-169819000D01*
X81673000Y-169819000D02*
X81383500Y-169529500D01*
X99961000Y-169819000D02*
X99671500Y-169529500D01*
X145391500Y-169672000D02*
X145062500Y-169343000D01*
X99290000Y-169148000D02*
X84783560Y-169148000D01*
X136247500Y-169529500D02*
X135957500Y-169239500D01*
X120729590Y-169819000D02*
X118249000Y-169819000D01*
X99671500Y-169529500D02*
X99290000Y-169148000D01*
X118249000Y-169819000D02*
X117959500Y-169529500D01*
X84112560Y-169819000D02*
X81673000Y-169819000D01*
X135957500Y-169239500D02*
X121309090Y-169239500D01*
X142565500Y-169343000D02*
X142089500Y-169819000D01*
X121309090Y-169239500D02*
X120729590Y-169819000D01*
X145062500Y-169343000D02*
X142565500Y-169343000D01*
X102486530Y-169819000D02*
X99961000Y-169819000D01*
%TO.N,Net-(D24-Pad2)*%
X119929000Y-168793000D02*
X102918560Y-168793000D01*
X102247355Y-168793000D02*
X101930855Y-169109500D01*
X138533500Y-169109500D02*
X138243500Y-168819500D01*
X141915530Y-169399000D02*
X138823000Y-169399000D01*
X138823000Y-169399000D02*
X138533500Y-169109500D01*
X146280500Y-169037000D02*
X146166500Y-168923000D01*
X138243500Y-168819500D02*
X120535500Y-168819500D01*
X84034837Y-168728000D02*
X83653337Y-169109500D01*
X120245500Y-169109500D02*
X119929000Y-168793000D01*
X120535500Y-168819500D02*
X120245500Y-169109500D01*
X142391530Y-168923000D02*
X141915530Y-169399000D01*
X101549355Y-168728000D02*
X84034837Y-168728000D01*
X101930855Y-169109500D02*
X101549355Y-168728000D01*
X102918560Y-168793000D02*
X102247355Y-168793000D01*
X146166500Y-168923000D02*
X142391530Y-168923000D01*
%TO.N,Net-(D25-Pad1)*%
X97520000Y-177680500D02*
X97393000Y-177680500D01*
X97385500Y-177673000D02*
X95099500Y-177673000D01*
X86090000Y-177680500D02*
X85955500Y-177680500D01*
X101957500Y-177673000D02*
X99925500Y-177673000D01*
X92933000Y-177680500D02*
X92843464Y-177680500D01*
X88249000Y-177680500D02*
X86090000Y-177680500D01*
X99798500Y-177680500D02*
X97520000Y-177680500D01*
X140565500Y-176911000D02*
X140151000Y-176496500D01*
X97393000Y-177680500D02*
X97385500Y-177673000D01*
X90535000Y-177680500D02*
X88249000Y-177680500D01*
X99918000Y-177680500D02*
X99798500Y-177680500D01*
X140151000Y-176496500D02*
X103261000Y-176496500D01*
X95099500Y-177673000D02*
X92940500Y-177673000D01*
X103261000Y-176496500D02*
X103134000Y-176496500D01*
X92843464Y-177680500D02*
X90535000Y-177680500D01*
X99925500Y-177673000D02*
X99918000Y-177680500D01*
X103134000Y-176496500D02*
X101957500Y-177673000D01*
X92940500Y-177673000D02*
X92933000Y-177680500D01*
%TO.N,Net-(D33-Pad1)*%
X106664000Y-177680500D02*
X106656500Y-177673000D01*
X106791000Y-177680500D02*
X106664000Y-177680500D01*
X108950000Y-177680500D02*
X108815500Y-177680500D01*
X120245500Y-177680500D02*
X118094000Y-177680500D01*
X104370500Y-177673000D02*
X104243500Y-177673000D01*
X111348000Y-177680500D02*
X111228500Y-177680500D01*
X121009500Y-176916500D02*
X120245500Y-177680500D01*
X121510000Y-176916500D02*
X121009500Y-176916500D01*
X113387500Y-177673000D02*
X111355500Y-177673000D01*
X113395000Y-177680500D02*
X113387500Y-177673000D01*
X108815500Y-177680500D02*
X106791000Y-177680500D01*
X115703464Y-177680500D02*
X113507000Y-177680500D01*
X111355500Y-177673000D02*
X111348000Y-177680500D01*
X139542386Y-176916500D02*
X121510000Y-176916500D01*
X118094000Y-177680500D02*
X115808000Y-177680500D01*
X115808000Y-177680500D02*
X115703464Y-177680500D01*
X106656500Y-177673000D02*
X104370500Y-177673000D01*
X140569443Y-177943557D02*
X139542386Y-176916500D01*
X113507000Y-177680500D02*
X113395000Y-177680500D01*
X111228500Y-177680500D02*
X108950000Y-177680500D01*
D16*
%TO.N,Net-(D41-Pad1)*%
X127150000Y-177626500D02*
X124991000Y-177626500D01*
X134135000Y-177626500D02*
X133961500Y-177626500D01*
X131722000Y-177626500D02*
X129436000Y-177626500D01*
X124991000Y-177626500D02*
X124817500Y-177626500D01*
X124817500Y-177626500D02*
X122705000Y-177626500D01*
X136548000Y-177626500D02*
X136247500Y-177626500D01*
X133961500Y-177626500D02*
X131722000Y-177626500D01*
X136247500Y-177626500D02*
X134135000Y-177626500D01*
X122705000Y-177626500D02*
X122599647Y-177626500D01*
X129436000Y-177626500D02*
X127150000Y-177626500D01*
X138533500Y-177626500D02*
X136548000Y-177626500D01*
D15*
%TO.N,Net-(D57-Pad1)*%
X144375500Y-180340000D02*
X145264500Y-180340000D01*
X145264500Y-180340000D02*
X145823739Y-180899239D01*
%TO.N,Net-(D73-Pad1)*%
X146534500Y-179578000D02*
X141200500Y-179578000D01*
X141200500Y-179578000D02*
X140946500Y-179578000D01*
X140946500Y-179578000D02*
X140184500Y-180340000D01*
%TO.N,/LEDs/LED_RST*%
X147602500Y-176782129D02*
X147602500Y-180288000D01*
X147672057Y-176712572D02*
X147602500Y-176782129D01*
X147602500Y-180288000D02*
X146915500Y-180975000D01*
%TD*%
%TA.AperFunction,Conductor*%
%TO.N,GND2*%
G36*
X150690621Y-167787502D02*
G01*
X150737114Y-167841158D01*
X150748500Y-167893500D01*
X150748500Y-170051242D01*
X150728498Y-170119363D01*
X150674842Y-170165856D01*
X150604568Y-170175960D01*
X150582835Y-170170835D01*
X150466361Y-170132203D01*
X150459525Y-170131503D01*
X150459522Y-170131502D01*
X150416469Y-170127091D01*
X150361900Y-170121500D01*
X149311100Y-170121500D01*
X149307854Y-170121837D01*
X149307850Y-170121837D01*
X149212192Y-170131762D01*
X149212188Y-170131763D01*
X149205334Y-170132474D01*
X149198798Y-170134655D01*
X149198796Y-170134655D01*
X149105276Y-170165856D01*
X149037554Y-170188450D01*
X148887152Y-170281522D01*
X148762195Y-170406697D01*
X148758355Y-170412927D01*
X148758354Y-170412928D01*
X148682772Y-170535545D01*
X148669385Y-170557262D01*
X148613703Y-170725139D01*
X148613003Y-170731975D01*
X148613002Y-170731978D01*
X148610521Y-170756191D01*
X148603000Y-170829600D01*
X148603000Y-170994619D01*
X148582998Y-171062740D01*
X148566095Y-171083714D01*
X147875214Y-171774595D01*
X147812902Y-171808621D01*
X147786119Y-171811500D01*
X147709013Y-171811500D01*
X147702561Y-171812872D01*
X147702556Y-171812872D01*
X147615613Y-171831353D01*
X147522212Y-171851206D01*
X147516182Y-171853891D01*
X147516181Y-171853891D01*
X147353778Y-171926197D01*
X147353776Y-171926198D01*
X147347748Y-171928882D01*
X147342407Y-171932762D01*
X147342406Y-171932763D01*
X147226061Y-172017293D01*
X147159193Y-172041151D01*
X147090042Y-172025071D01*
X147040562Y-171974157D01*
X147026000Y-171915357D01*
X147026000Y-170808381D01*
X147046002Y-170740260D01*
X147062905Y-170719286D01*
X147506786Y-170275405D01*
X147569098Y-170241379D01*
X147595881Y-170238500D01*
X148202900Y-170238500D01*
X148206146Y-170238163D01*
X148206150Y-170238163D01*
X148301808Y-170228238D01*
X148301812Y-170228237D01*
X148308666Y-170227526D01*
X148315202Y-170225345D01*
X148315204Y-170225345D01*
X148469498Y-170173868D01*
X148476446Y-170171550D01*
X148626848Y-170078478D01*
X148751805Y-169953303D01*
X148795528Y-169882372D01*
X148840775Y-169808968D01*
X148840776Y-169808966D01*
X148844615Y-169802738D01*
X148900297Y-169634861D01*
X148901769Y-169620500D01*
X148910672Y-169533598D01*
X148911000Y-169530400D01*
X148911000Y-168929600D01*
X148910663Y-168926350D01*
X148900738Y-168830692D01*
X148900737Y-168830688D01*
X148900026Y-168823834D01*
X148878896Y-168760498D01*
X148846368Y-168663002D01*
X148844050Y-168656054D01*
X148750978Y-168505652D01*
X148625803Y-168380695D01*
X148619572Y-168376854D01*
X148481468Y-168291725D01*
X148481466Y-168291724D01*
X148475238Y-168287885D01*
X148360303Y-168249763D01*
X148313889Y-168234368D01*
X148313887Y-168234368D01*
X148307361Y-168232203D01*
X148300525Y-168231503D01*
X148300522Y-168231502D01*
X148257469Y-168227091D01*
X148202900Y-168221500D01*
X147152100Y-168221500D01*
X147148854Y-168221837D01*
X147148850Y-168221837D01*
X147053192Y-168231762D01*
X147053188Y-168231763D01*
X147046334Y-168232474D01*
X147039792Y-168234657D01*
X147039790Y-168234657D01*
X146883364Y-168286845D01*
X146812414Y-168289430D01*
X146769426Y-168269258D01*
X146742594Y-168249763D01*
X146742593Y-168249762D01*
X146737252Y-168245882D01*
X146731224Y-168243198D01*
X146731222Y-168243197D01*
X146568819Y-168170891D01*
X146568818Y-168170891D01*
X146562788Y-168168206D01*
X146469387Y-168148353D01*
X146382444Y-168129872D01*
X146382439Y-168129872D01*
X146375987Y-168128500D01*
X146185013Y-168128500D01*
X146178561Y-168129872D01*
X146178556Y-168129872D01*
X146091613Y-168148353D01*
X145998212Y-168168206D01*
X145992182Y-168170891D01*
X145992181Y-168170891D01*
X145829778Y-168243197D01*
X145829776Y-168243198D01*
X145823748Y-168245882D01*
X145818408Y-168249762D01*
X145818406Y-168249763D01*
X145776189Y-168280436D01*
X145709322Y-168304294D01*
X145702128Y-168304500D01*
X142468314Y-168304500D01*
X142457537Y-168303991D01*
X142450199Y-168302351D01*
X142388365Y-168304294D01*
X142383782Y-168304438D01*
X142379825Y-168304500D01*
X142352616Y-168304500D01*
X142348681Y-168304997D01*
X142348254Y-168305024D01*
X142337019Y-168305907D01*
X142301927Y-168307010D01*
X142301926Y-168307010D01*
X142294007Y-168307259D01*
X142286400Y-168309469D01*
X142286393Y-168309470D01*
X142275230Y-168312713D01*
X142255876Y-168316721D01*
X142244360Y-168318176D01*
X142236493Y-168319170D01*
X142229123Y-168322088D01*
X142229115Y-168322090D01*
X142196490Y-168335007D01*
X142185261Y-168338852D01*
X142143942Y-168350856D01*
X142127119Y-168360805D01*
X142109368Y-168369501D01*
X142098570Y-168373776D01*
X142098565Y-168373779D01*
X142091197Y-168376696D01*
X142084786Y-168381354D01*
X142084784Y-168381355D01*
X142056386Y-168401988D01*
X142046471Y-168408501D01*
X142009434Y-168430404D01*
X141995618Y-168444220D01*
X141980585Y-168457060D01*
X141964772Y-168468549D01*
X141937339Y-168501710D01*
X141929358Y-168510480D01*
X141696244Y-168743595D01*
X141633931Y-168777620D01*
X141607148Y-168780500D01*
X139465343Y-168780500D01*
X139397222Y-168760498D01*
X139356224Y-168717500D01*
X139275841Y-168578274D01*
X139272540Y-168572556D01*
X139212300Y-168505652D01*
X139149175Y-168435545D01*
X139149174Y-168435544D01*
X139144753Y-168430634D01*
X139040504Y-168354892D01*
X138995594Y-168322263D01*
X138995593Y-168322262D01*
X138990252Y-168318382D01*
X138984224Y-168315698D01*
X138984222Y-168315697D01*
X138821819Y-168243391D01*
X138821818Y-168243391D01*
X138815788Y-168240706D01*
X138722388Y-168220853D01*
X138635444Y-168202372D01*
X138635439Y-168202372D01*
X138628987Y-168201000D01*
X138438013Y-168201000D01*
X138403250Y-168208389D01*
X138345720Y-168207183D01*
X138329320Y-168202972D01*
X138329311Y-168202971D01*
X138321635Y-168201000D01*
X138302100Y-168201000D01*
X138282389Y-168199449D01*
X138270911Y-168197631D01*
X138263082Y-168196391D01*
X138249965Y-168197631D01*
X138220239Y-168200441D01*
X138208381Y-168201000D01*
X120612284Y-168201000D01*
X120601507Y-168200491D01*
X120594169Y-168198851D01*
X120531730Y-168200813D01*
X120527752Y-168200938D01*
X120523795Y-168201000D01*
X120496586Y-168201000D01*
X120492651Y-168201497D01*
X120492224Y-168201524D01*
X120480989Y-168202407D01*
X120448512Y-168203428D01*
X120437977Y-168203759D01*
X120430362Y-168205971D01*
X120422535Y-168207211D01*
X120422285Y-168205629D01*
X120371527Y-168207491D01*
X120352618Y-168203472D01*
X120340987Y-168201000D01*
X120150013Y-168201000D01*
X120150013Y-168200529D01*
X120108722Y-168196844D01*
X120102928Y-168194337D01*
X120095106Y-168193098D01*
X120095102Y-168193097D01*
X120060430Y-168187606D01*
X120048805Y-168185199D01*
X120014812Y-168176471D01*
X120014811Y-168176471D01*
X120007135Y-168174500D01*
X119987600Y-168174500D01*
X119967889Y-168172949D01*
X119956411Y-168171131D01*
X119948582Y-168169891D01*
X119938004Y-168170891D01*
X119905739Y-168173941D01*
X119893881Y-168174500D01*
X102324139Y-168174500D01*
X102313362Y-168173991D01*
X102306024Y-168172351D01*
X102243617Y-168174312D01*
X102239607Y-168174438D01*
X102235650Y-168174500D01*
X102208441Y-168174500D01*
X102204506Y-168174997D01*
X102204079Y-168175024D01*
X102192844Y-168175907D01*
X102157752Y-168177010D01*
X102157751Y-168177010D01*
X102149832Y-168177259D01*
X102142225Y-168179469D01*
X102142218Y-168179470D01*
X102131055Y-168182713D01*
X102111701Y-168186721D01*
X102100182Y-168188176D01*
X102100179Y-168188177D01*
X102092318Y-168189170D01*
X102082257Y-168193153D01*
X102079132Y-168193581D01*
X102077272Y-168194059D01*
X102077217Y-168193844D01*
X102026342Y-168200813D01*
X102026342Y-168201000D01*
X101914979Y-168201000D01*
X101864937Y-168190637D01*
X101828858Y-168175024D01*
X101827212Y-168174311D01*
X101816554Y-168169090D01*
X101812451Y-168166834D01*
X101809551Y-168165240D01*
X101785792Y-168152178D01*
X101785789Y-168152177D01*
X101778850Y-168148362D01*
X101759914Y-168143500D01*
X101741215Y-168137097D01*
X101723283Y-168129337D01*
X101715461Y-168128098D01*
X101715457Y-168128097D01*
X101680785Y-168122606D01*
X101669160Y-168120199D01*
X101635167Y-168111471D01*
X101635166Y-168111471D01*
X101627490Y-168109500D01*
X101607955Y-168109500D01*
X101588244Y-168107949D01*
X101576766Y-168106131D01*
X101568937Y-168104891D01*
X101540269Y-168107601D01*
X101526094Y-168108941D01*
X101514236Y-168109500D01*
X84111617Y-168109500D01*
X84100842Y-168108992D01*
X84093505Y-168107352D01*
X84042937Y-168108941D01*
X84027120Y-168109438D01*
X84023163Y-168109500D01*
X83995923Y-168109500D01*
X83992009Y-168109994D01*
X83991568Y-168110022D01*
X83980322Y-168110908D01*
X83937313Y-168112260D01*
X83929696Y-168114473D01*
X83918554Y-168117710D01*
X83899190Y-168121721D01*
X83879800Y-168124170D01*
X83872429Y-168127088D01*
X83872426Y-168127089D01*
X83839794Y-168140008D01*
X83828565Y-168143853D01*
X83794860Y-168153645D01*
X83794857Y-168153646D01*
X83787248Y-168155857D01*
X83770422Y-168165808D01*
X83752671Y-168174503D01*
X83741873Y-168178778D01*
X83741870Y-168178780D01*
X83734504Y-168181696D01*
X83729158Y-168185580D01*
X83669101Y-168201000D01*
X83557850Y-168201000D01*
X83551398Y-168202372D01*
X83551393Y-168202372D01*
X83464449Y-168220853D01*
X83371049Y-168240706D01*
X83365019Y-168243391D01*
X83365018Y-168243391D01*
X83202615Y-168315697D01*
X83202613Y-168315698D01*
X83196585Y-168318382D01*
X83191244Y-168322262D01*
X83191243Y-168322263D01*
X83146333Y-168354892D01*
X83042084Y-168430634D01*
X83037663Y-168435544D01*
X83037662Y-168435545D01*
X82974538Y-168505652D01*
X82914297Y-168572556D01*
X82818810Y-168737944D01*
X82759795Y-168919572D01*
X82759105Y-168926133D01*
X82759105Y-168926135D01*
X82742127Y-169087671D01*
X82715114Y-169153327D01*
X82656892Y-169193957D01*
X82616817Y-169200500D01*
X82315343Y-169200500D01*
X82247222Y-169180498D01*
X82206224Y-169137500D01*
X82125841Y-168998274D01*
X82122540Y-168992556D01*
X81994753Y-168850634D01*
X81840252Y-168738382D01*
X81834224Y-168735698D01*
X81834222Y-168735697D01*
X81671819Y-168663391D01*
X81671818Y-168663391D01*
X81665788Y-168660706D01*
X81572387Y-168640853D01*
X81485444Y-168622372D01*
X81485439Y-168622372D01*
X81478987Y-168621000D01*
X81288013Y-168621000D01*
X81281561Y-168622372D01*
X81281556Y-168622372D01*
X81194613Y-168640853D01*
X81101212Y-168660706D01*
X81095182Y-168663391D01*
X81095181Y-168663391D01*
X80932778Y-168735697D01*
X80932776Y-168735698D01*
X80926748Y-168738382D01*
X80772247Y-168850634D01*
X80644460Y-168992556D01*
X80548973Y-169157944D01*
X80489958Y-169339572D01*
X80489268Y-169346133D01*
X80489268Y-169346135D01*
X80472290Y-169507671D01*
X80445277Y-169573327D01*
X80387055Y-169613957D01*
X80346980Y-169620500D01*
X80029343Y-169620500D01*
X79961222Y-169600498D01*
X79920224Y-169557500D01*
X79839841Y-169418274D01*
X79836540Y-169412556D01*
X79708753Y-169270634D01*
X79554252Y-169158382D01*
X79548224Y-169155698D01*
X79548222Y-169155697D01*
X79385819Y-169083391D01*
X79385818Y-169083391D01*
X79379788Y-169080706D01*
X79286387Y-169060853D01*
X79199444Y-169042372D01*
X79199439Y-169042372D01*
X79192987Y-169041000D01*
X79002013Y-169041000D01*
X78995561Y-169042372D01*
X78995556Y-169042372D01*
X78908613Y-169060853D01*
X78815212Y-169080706D01*
X78809182Y-169083391D01*
X78809181Y-169083391D01*
X78646778Y-169155697D01*
X78646776Y-169155698D01*
X78640748Y-169158382D01*
X78486247Y-169270634D01*
X78358460Y-169412556D01*
X78262973Y-169577944D01*
X78203958Y-169759572D01*
X78203268Y-169766133D01*
X78203268Y-169766135D01*
X78186290Y-169927671D01*
X78159277Y-169993327D01*
X78101055Y-170033957D01*
X78060980Y-170040500D01*
X77743343Y-170040500D01*
X77675222Y-170020498D01*
X77634224Y-169977500D01*
X77553841Y-169838274D01*
X77550540Y-169832556D01*
X77422753Y-169690634D01*
X77268252Y-169578382D01*
X77262224Y-169575698D01*
X77262222Y-169575697D01*
X77099819Y-169503391D01*
X77099818Y-169503391D01*
X77093788Y-169500706D01*
X77000388Y-169480853D01*
X76913444Y-169462372D01*
X76913439Y-169462372D01*
X76906987Y-169461000D01*
X76716013Y-169461000D01*
X76709561Y-169462372D01*
X76709556Y-169462372D01*
X76622612Y-169480853D01*
X76529212Y-169500706D01*
X76523182Y-169503391D01*
X76523181Y-169503391D01*
X76360778Y-169575697D01*
X76360776Y-169575698D01*
X76354748Y-169578382D01*
X76200247Y-169690634D01*
X76072460Y-169832556D01*
X76020016Y-169923391D01*
X76002747Y-169953303D01*
X75976973Y-169997944D01*
X75917958Y-170179572D01*
X75917269Y-170186132D01*
X75917268Y-170186135D01*
X75900290Y-170347671D01*
X75873277Y-170413327D01*
X75815055Y-170453957D01*
X75774980Y-170460500D01*
X75457343Y-170460500D01*
X75389222Y-170440498D01*
X75348224Y-170397500D01*
X75284255Y-170286704D01*
X75264540Y-170252556D01*
X75251581Y-170238163D01*
X75141175Y-170115545D01*
X75141174Y-170115544D01*
X75136753Y-170110634D01*
X74982252Y-169998382D01*
X74976224Y-169995698D01*
X74976222Y-169995697D01*
X74813819Y-169923391D01*
X74813818Y-169923391D01*
X74807788Y-169920706D01*
X74714388Y-169900853D01*
X74627444Y-169882372D01*
X74627439Y-169882372D01*
X74620987Y-169881000D01*
X74430013Y-169881000D01*
X74423561Y-169882372D01*
X74423556Y-169882372D01*
X74336612Y-169900853D01*
X74243212Y-169920706D01*
X74237182Y-169923391D01*
X74237181Y-169923391D01*
X74074778Y-169995697D01*
X74074776Y-169995698D01*
X74068748Y-169998382D01*
X73914247Y-170110634D01*
X73909826Y-170115544D01*
X73909825Y-170115545D01*
X73799420Y-170238163D01*
X73786460Y-170252556D01*
X73690973Y-170417944D01*
X73631958Y-170599572D01*
X73631268Y-170606133D01*
X73631268Y-170606135D01*
X73614290Y-170767671D01*
X73587277Y-170833327D01*
X73529055Y-170873957D01*
X73488980Y-170880500D01*
X73171343Y-170880500D01*
X73103222Y-170860498D01*
X73062224Y-170817500D01*
X72981841Y-170678274D01*
X72978540Y-170672556D01*
X72895653Y-170580500D01*
X72855175Y-170535545D01*
X72855174Y-170535544D01*
X72850753Y-170530634D01*
X72696252Y-170418382D01*
X72690224Y-170415698D01*
X72690222Y-170415697D01*
X72527819Y-170343391D01*
X72527818Y-170343391D01*
X72521788Y-170340706D01*
X72428388Y-170320853D01*
X72341444Y-170302372D01*
X72341439Y-170302372D01*
X72334987Y-170301000D01*
X72144013Y-170301000D01*
X72137561Y-170302372D01*
X72137556Y-170302372D01*
X72050612Y-170320853D01*
X71957212Y-170340706D01*
X71951182Y-170343391D01*
X71951181Y-170343391D01*
X71788778Y-170415697D01*
X71788776Y-170415698D01*
X71782748Y-170418382D01*
X71628247Y-170530634D01*
X71623826Y-170535544D01*
X71623825Y-170535545D01*
X71583348Y-170580500D01*
X71500460Y-170672556D01*
X71404973Y-170837944D01*
X71345958Y-171019572D01*
X71345268Y-171026133D01*
X71345268Y-171026135D01*
X71328290Y-171187671D01*
X71301277Y-171253327D01*
X71243055Y-171293957D01*
X71202980Y-171300500D01*
X70885343Y-171300500D01*
X70817222Y-171280498D01*
X70776224Y-171237500D01*
X70695841Y-171098274D01*
X70692540Y-171092556D01*
X70573302Y-170960128D01*
X70569175Y-170955545D01*
X70569174Y-170955544D01*
X70564753Y-170950634D01*
X70440692Y-170860498D01*
X70415594Y-170842263D01*
X70415593Y-170842262D01*
X70410252Y-170838382D01*
X70404224Y-170835698D01*
X70404222Y-170835697D01*
X70241819Y-170763391D01*
X70241818Y-170763391D01*
X70235788Y-170760706D01*
X70139598Y-170740260D01*
X70055444Y-170722372D01*
X70055439Y-170722372D01*
X70048987Y-170721000D01*
X69858013Y-170721000D01*
X69851561Y-170722372D01*
X69851556Y-170722372D01*
X69767402Y-170740260D01*
X69671212Y-170760706D01*
X69665182Y-170763391D01*
X69665181Y-170763391D01*
X69502778Y-170835697D01*
X69502776Y-170835698D01*
X69496748Y-170838382D01*
X69491407Y-170842262D01*
X69491406Y-170842263D01*
X69466308Y-170860498D01*
X69342247Y-170950634D01*
X69337826Y-170955544D01*
X69337825Y-170955545D01*
X69333699Y-170960128D01*
X69214460Y-171092556D01*
X69211159Y-171098274D01*
X69138026Y-171224944D01*
X69118973Y-171257944D01*
X69059958Y-171439572D01*
X69059268Y-171446133D01*
X69059268Y-171446135D01*
X69042290Y-171607671D01*
X69015277Y-171673327D01*
X68957055Y-171713957D01*
X68916980Y-171720500D01*
X68578847Y-171720500D01*
X68510726Y-171700498D01*
X68469728Y-171657500D01*
X68409842Y-171553774D01*
X68409839Y-171553769D01*
X68406540Y-171548056D01*
X68278753Y-171406134D01*
X68124252Y-171293882D01*
X68118224Y-171291198D01*
X68118222Y-171291197D01*
X67955819Y-171218891D01*
X67955818Y-171218891D01*
X67949788Y-171216206D01*
X67856387Y-171196353D01*
X67769444Y-171177872D01*
X67769439Y-171177872D01*
X67762987Y-171176500D01*
X67572013Y-171176500D01*
X67565561Y-171177872D01*
X67565556Y-171177872D01*
X67478613Y-171196353D01*
X67385212Y-171216206D01*
X67379182Y-171218891D01*
X67379181Y-171218891D01*
X67216778Y-171291197D01*
X67216776Y-171291198D01*
X67210748Y-171293882D01*
X67056247Y-171406134D01*
X66928460Y-171548056D01*
X66832973Y-171713444D01*
X66773958Y-171895072D01*
X66773268Y-171901633D01*
X66773268Y-171901635D01*
X66755901Y-172066872D01*
X66753996Y-172085000D01*
X66754686Y-172091565D01*
X66764692Y-172186763D01*
X66773958Y-172274928D01*
X66832973Y-172456556D01*
X66928460Y-172621944D01*
X66932878Y-172626851D01*
X66932879Y-172626852D01*
X67043511Y-172749721D01*
X67056247Y-172763866D01*
X67084058Y-172784072D01*
X67189160Y-172860433D01*
X67210748Y-172876118D01*
X67216776Y-172878802D01*
X67216778Y-172878803D01*
X67369505Y-172946801D01*
X67385212Y-172953794D01*
X67478613Y-172973647D01*
X67565556Y-172992128D01*
X67565561Y-172992128D01*
X67572013Y-172993500D01*
X67762987Y-172993500D01*
X67769439Y-172992128D01*
X67769444Y-172992128D01*
X67866112Y-172971580D01*
X67910578Y-172962128D01*
X67924915Y-172959935D01*
X67944763Y-172958059D01*
X67956619Y-172957500D01*
X85497716Y-172957500D01*
X85508493Y-172958009D01*
X85515831Y-172959649D01*
X85582248Y-172957562D01*
X85586205Y-172957500D01*
X85613414Y-172957500D01*
X85617349Y-172957003D01*
X85617776Y-172956976D01*
X85629011Y-172956093D01*
X85661488Y-172955072D01*
X85672023Y-172954741D01*
X85680855Y-172952175D01*
X85690794Y-172949288D01*
X85710153Y-172945279D01*
X85717157Y-172944394D01*
X85729537Y-172942830D01*
X85736899Y-172939915D01*
X85736908Y-172939913D01*
X85769543Y-172926992D01*
X85780767Y-172923148D01*
X85822088Y-172911143D01*
X85838907Y-172901197D01*
X85856657Y-172892501D01*
X85867460Y-172888224D01*
X85867465Y-172888221D01*
X85874833Y-172885304D01*
X85879612Y-172881832D01*
X85939327Y-172866500D01*
X85972032Y-172866500D01*
X86022074Y-172876864D01*
X86058642Y-172892689D01*
X86069301Y-172897910D01*
X86100063Y-172914822D01*
X86100066Y-172914823D01*
X86107005Y-172918638D01*
X86125941Y-172923500D01*
X86144638Y-172929902D01*
X86162572Y-172937663D01*
X86170394Y-172938902D01*
X86170398Y-172938903D01*
X86205070Y-172944394D01*
X86216695Y-172946801D01*
X86249275Y-172955166D01*
X86258365Y-172957500D01*
X86277900Y-172957500D01*
X86297610Y-172959051D01*
X86316918Y-172962109D01*
X86358449Y-172958183D01*
X86359761Y-172958059D01*
X86371619Y-172957500D01*
X103912716Y-172957500D01*
X103923488Y-172958008D01*
X103930831Y-172959649D01*
X103938757Y-172959400D01*
X103938758Y-172959400D01*
X103966055Y-172958542D01*
X103996210Y-172961233D01*
X104141556Y-172992128D01*
X104141561Y-172992128D01*
X104148013Y-172993500D01*
X104338987Y-172993500D01*
X104345439Y-172992128D01*
X104345444Y-172992128D01*
X104442112Y-172971580D01*
X104486578Y-172962128D01*
X104500915Y-172959935D01*
X104520763Y-172958059D01*
X104532619Y-172957500D01*
X122200716Y-172957500D01*
X122211488Y-172958008D01*
X122218831Y-172959649D01*
X122226757Y-172959400D01*
X122226758Y-172959400D01*
X122254055Y-172958542D01*
X122284210Y-172961233D01*
X122429556Y-172992128D01*
X122429561Y-172992128D01*
X122436013Y-172993500D01*
X122626987Y-172993500D01*
X122633439Y-172992128D01*
X122633444Y-172992128D01*
X122730112Y-172971580D01*
X122774578Y-172962128D01*
X122788915Y-172959935D01*
X122808763Y-172958059D01*
X122820619Y-172957500D01*
X139166361Y-172957500D01*
X139234482Y-172977502D01*
X139280975Y-173031158D01*
X139291079Y-173101432D01*
X139275481Y-173146498D01*
X139222973Y-173237444D01*
X139163958Y-173419072D01*
X139163268Y-173425633D01*
X139163268Y-173425635D01*
X139145730Y-173592500D01*
X139143996Y-173609000D01*
X139144686Y-173615565D01*
X139160687Y-173767803D01*
X139163958Y-173798928D01*
X139222973Y-173980556D01*
X139226276Y-173986278D01*
X139226277Y-173986279D01*
X139248468Y-174024714D01*
X139318460Y-174145944D01*
X139322878Y-174150851D01*
X139322879Y-174150852D01*
X139441788Y-174282914D01*
X139446247Y-174287866D01*
X139600748Y-174400118D01*
X139606776Y-174402802D01*
X139606778Y-174402803D01*
X139688175Y-174439043D01*
X139775212Y-174477794D01*
X139868613Y-174497647D01*
X139955556Y-174516128D01*
X139955561Y-174516128D01*
X139962013Y-174517500D01*
X140152987Y-174517500D01*
X140159439Y-174516128D01*
X140159444Y-174516128D01*
X140246387Y-174497647D01*
X140339788Y-174477794D01*
X140426825Y-174439043D01*
X140508222Y-174402803D01*
X140508224Y-174402802D01*
X140514252Y-174400118D01*
X140605809Y-174333598D01*
X140663409Y-174291749D01*
X140663411Y-174291747D01*
X140668753Y-174287866D01*
X140673171Y-174282959D01*
X140673178Y-174282953D01*
X140688172Y-174266300D01*
X140748617Y-174229060D01*
X140808005Y-174227364D01*
X140971547Y-174262127D01*
X140971560Y-174262128D01*
X140978013Y-174263500D01*
X141168987Y-174263500D01*
X141175439Y-174262128D01*
X141175444Y-174262128D01*
X141262387Y-174243647D01*
X141355788Y-174223794D01*
X141402023Y-174203209D01*
X141524222Y-174148803D01*
X141524224Y-174148802D01*
X141530252Y-174146118D01*
X141684753Y-174033866D01*
X141689175Y-174028955D01*
X141808121Y-173896852D01*
X141808122Y-173896851D01*
X141812540Y-173891944D01*
X141888004Y-173761237D01*
X141904723Y-173732279D01*
X141904724Y-173732278D01*
X141908027Y-173726556D01*
X141962395Y-173559231D01*
X142002468Y-173500626D01*
X142056029Y-173474922D01*
X142117788Y-173461794D01*
X142213744Y-173419072D01*
X142286222Y-173386803D01*
X142286224Y-173386802D01*
X142292252Y-173384118D01*
X142446753Y-173271866D01*
X142574540Y-173129944D01*
X142662553Y-172977502D01*
X142666723Y-172970279D01*
X142666724Y-172970278D01*
X142670027Y-172964556D01*
X142720790Y-172808326D01*
X142760862Y-172749721D01*
X142826259Y-172722084D01*
X142896216Y-172734191D01*
X142948522Y-172782197D01*
X142966571Y-172850861D01*
X142965932Y-172860433D01*
X142955504Y-172959649D01*
X142953996Y-172974000D01*
X142954686Y-172980565D01*
X142956046Y-172993500D01*
X142973958Y-173163928D01*
X143032973Y-173345556D01*
X143128460Y-173510944D01*
X143256247Y-173652866D01*
X143274542Y-173666158D01*
X143396134Y-173754500D01*
X143410748Y-173765118D01*
X143416776Y-173767802D01*
X143416778Y-173767803D01*
X143579181Y-173840109D01*
X143585212Y-173842794D01*
X143678612Y-173862647D01*
X143765556Y-173881128D01*
X143765561Y-173881128D01*
X143772013Y-173882500D01*
X143962987Y-173882500D01*
X143969439Y-173881128D01*
X143969444Y-173881128D01*
X144056388Y-173862647D01*
X144149788Y-173842794D01*
X144155819Y-173840109D01*
X144318222Y-173767803D01*
X144318224Y-173767802D01*
X144324252Y-173765118D01*
X144338867Y-173754500D01*
X144460458Y-173666158D01*
X144478753Y-173652866D01*
X144495570Y-173634189D01*
X144556016Y-173596950D01*
X144589206Y-173592500D01*
X146298000Y-173592500D01*
X146366121Y-173612502D01*
X146412614Y-173666158D01*
X146424000Y-173718500D01*
X146424000Y-174167216D01*
X146423491Y-174177993D01*
X146421851Y-174185331D01*
X146422100Y-174193250D01*
X146423938Y-174251748D01*
X146424000Y-174255705D01*
X146424000Y-174282914D01*
X146424497Y-174286849D01*
X146424524Y-174287276D01*
X146425407Y-174298511D01*
X146426759Y-174341523D01*
X146428972Y-174349140D01*
X146432212Y-174360294D01*
X146436221Y-174379653D01*
X146438670Y-174399037D01*
X146441585Y-174406399D01*
X146441587Y-174406408D01*
X146454508Y-174439043D01*
X146458352Y-174450267D01*
X146470357Y-174491588D01*
X146480303Y-174508406D01*
X146488999Y-174526157D01*
X146493276Y-174536960D01*
X146493279Y-174536965D01*
X146496196Y-174544333D01*
X146500856Y-174550747D01*
X146521491Y-174579149D01*
X146528007Y-174589069D01*
X146549905Y-174626096D01*
X146563717Y-174639908D01*
X146576558Y-174654942D01*
X146588049Y-174670758D01*
X146594157Y-174675811D01*
X146621210Y-174698191D01*
X146629990Y-174706181D01*
X147537263Y-175613454D01*
X147571289Y-175675766D01*
X147566224Y-175746581D01*
X147523677Y-175803417D01*
X147474366Y-175825795D01*
X147396233Y-175842403D01*
X147396224Y-175842406D01*
X147389769Y-175843778D01*
X147383739Y-175846463D01*
X147383738Y-175846463D01*
X147221335Y-175918769D01*
X147221333Y-175918770D01*
X147215305Y-175921454D01*
X147060804Y-176033706D01*
X147056383Y-176038616D01*
X147056382Y-176038617D01*
X146999830Y-176101425D01*
X146933017Y-176175628D01*
X146837530Y-176341016D01*
X146778515Y-176522644D01*
X146777825Y-176529205D01*
X146777825Y-176529207D01*
X146772151Y-176583193D01*
X146758553Y-176712572D01*
X146778515Y-176902500D01*
X146837530Y-177084128D01*
X146840833Y-177089850D01*
X146840834Y-177089851D01*
X146850854Y-177107206D01*
X146933017Y-177249516D01*
X146937435Y-177254423D01*
X146937436Y-177254424D01*
X146951635Y-177270193D01*
X146982353Y-177334201D01*
X146984000Y-177354505D01*
X146984000Y-178590838D01*
X146963998Y-178658959D01*
X146910342Y-178705452D01*
X146840068Y-178715556D01*
X146821187Y-178711164D01*
X146816788Y-178709206D01*
X146791127Y-178703752D01*
X146636444Y-178670872D01*
X146636439Y-178670872D01*
X146629987Y-178669500D01*
X146439013Y-178669500D01*
X146432561Y-178670872D01*
X146432556Y-178670872D01*
X146345612Y-178689353D01*
X146252212Y-178709206D01*
X146246182Y-178711891D01*
X146246181Y-178711891D01*
X146083778Y-178784197D01*
X146083776Y-178784198D01*
X146077748Y-178786882D01*
X146072407Y-178790762D01*
X146072406Y-178790763D01*
X146038265Y-178815568D01*
X145923247Y-178899134D01*
X145918834Y-178904036D01*
X145918832Y-178904037D01*
X145906430Y-178917811D01*
X145845984Y-178955050D01*
X145812794Y-178959500D01*
X141104538Y-178959500D01*
X141036417Y-178939498D01*
X140989924Y-178885842D01*
X140979820Y-178815568D01*
X141009314Y-178750988D01*
X141030477Y-178731564D01*
X141115900Y-178669500D01*
X141180696Y-178622423D01*
X141293928Y-178496666D01*
X141304064Y-178485409D01*
X141304065Y-178485408D01*
X141308483Y-178480501D01*
X141376181Y-178363245D01*
X141400666Y-178320836D01*
X141400667Y-178320835D01*
X141403970Y-178315113D01*
X141462985Y-178133485D01*
X141468936Y-178076870D01*
X141482257Y-177950122D01*
X141482947Y-177943557D01*
X141475261Y-177870428D01*
X141463675Y-177760192D01*
X141463675Y-177760190D01*
X141462985Y-177753629D01*
X141403970Y-177572001D01*
X141382608Y-177535000D01*
X141354816Y-177486864D01*
X141338078Y-177417869D01*
X141354816Y-177360864D01*
X141396723Y-177288279D01*
X141396724Y-177288278D01*
X141400027Y-177282556D01*
X141459042Y-177100928D01*
X141463134Y-177062000D01*
X141478314Y-176917565D01*
X141479004Y-176911000D01*
X141467780Y-176804206D01*
X141459732Y-176727635D01*
X141459732Y-176727633D01*
X141459042Y-176721072D01*
X141400027Y-176539444D01*
X141362385Y-176474247D01*
X141345648Y-176405255D01*
X141362386Y-176348249D01*
X141396723Y-176288776D01*
X141396724Y-176288775D01*
X141400027Y-176283053D01*
X141459042Y-176101425D01*
X141466160Y-176033706D01*
X141478314Y-175918062D01*
X141479004Y-175911497D01*
X141471742Y-175842403D01*
X141459732Y-175728132D01*
X141459732Y-175728130D01*
X141459042Y-175721569D01*
X141400027Y-175539941D01*
X141304540Y-175374553D01*
X141247184Y-175310852D01*
X141181175Y-175237542D01*
X141181174Y-175237541D01*
X141176753Y-175232631D01*
X141022252Y-175120379D01*
X141016224Y-175117695D01*
X141016222Y-175117694D01*
X140853819Y-175045388D01*
X140853818Y-175045388D01*
X140847788Y-175042703D01*
X140754387Y-175022850D01*
X140667444Y-175004369D01*
X140667439Y-175004369D01*
X140660987Y-175002997D01*
X140470013Y-175002997D01*
X140463561Y-175004369D01*
X140463556Y-175004369D01*
X140376613Y-175022850D01*
X140283212Y-175042703D01*
X140277182Y-175045388D01*
X140277181Y-175045388D01*
X140114778Y-175117694D01*
X140114776Y-175117695D01*
X140108748Y-175120379D01*
X140103407Y-175124259D01*
X140103406Y-175124260D01*
X140023088Y-175182615D01*
X139954247Y-175232631D01*
X139949832Y-175237534D01*
X139944920Y-175241957D01*
X139943409Y-175240279D01*
X139891834Y-175272051D01*
X139858648Y-175276500D01*
X85524284Y-175276500D01*
X85513507Y-175275991D01*
X85506169Y-175274351D01*
X85440795Y-175276405D01*
X85439752Y-175276438D01*
X85435795Y-175276500D01*
X85408586Y-175276500D01*
X85404651Y-175276997D01*
X85404224Y-175277024D01*
X85392989Y-175277907D01*
X85357897Y-175279010D01*
X85357896Y-175279010D01*
X85349977Y-175279259D01*
X85342370Y-175281469D01*
X85342363Y-175281470D01*
X85331200Y-175284713D01*
X85311846Y-175288721D01*
X85300330Y-175290176D01*
X85292463Y-175291170D01*
X85285093Y-175294088D01*
X85285085Y-175294090D01*
X85252460Y-175307007D01*
X85241231Y-175310852D01*
X85199912Y-175322856D01*
X85183089Y-175332805D01*
X85165338Y-175341501D01*
X85154540Y-175345776D01*
X85154535Y-175345779D01*
X85147167Y-175348696D01*
X85140756Y-175353354D01*
X85140754Y-175353355D01*
X85112356Y-175373988D01*
X85102441Y-175380501D01*
X85065404Y-175402404D01*
X85051588Y-175416220D01*
X85036555Y-175429060D01*
X85020742Y-175440549D01*
X84993313Y-175473705D01*
X84985323Y-175482485D01*
X84360106Y-176107703D01*
X83740214Y-176727595D01*
X83677902Y-176761620D01*
X83651119Y-176764500D01*
X83574013Y-176764500D01*
X83567561Y-176765872D01*
X83567556Y-176765872D01*
X83480612Y-176784353D01*
X83387212Y-176804206D01*
X83381182Y-176806891D01*
X83381181Y-176806891D01*
X83218778Y-176879197D01*
X83218776Y-176879198D01*
X83212748Y-176881882D01*
X83207407Y-176885762D01*
X83207406Y-176885763D01*
X83163635Y-176917565D01*
X83058247Y-176994134D01*
X83053834Y-176999036D01*
X83053832Y-176999037D01*
X83041430Y-177012811D01*
X82980984Y-177050050D01*
X82947794Y-177054500D01*
X82105206Y-177054500D01*
X82037085Y-177034498D01*
X82011570Y-177012811D01*
X81999168Y-176999037D01*
X81999166Y-176999036D01*
X81994753Y-176994134D01*
X81889365Y-176917565D01*
X81845594Y-176885763D01*
X81845593Y-176885762D01*
X81840252Y-176881882D01*
X81834224Y-176879198D01*
X81834222Y-176879197D01*
X81671819Y-176806891D01*
X81671818Y-176806891D01*
X81665788Y-176804206D01*
X81572388Y-176784353D01*
X81485444Y-176765872D01*
X81485439Y-176765872D01*
X81478987Y-176764500D01*
X81288013Y-176764500D01*
X81281561Y-176765872D01*
X81281556Y-176765872D01*
X81194612Y-176784353D01*
X81101212Y-176804206D01*
X81095182Y-176806891D01*
X81095181Y-176806891D01*
X80932778Y-176879197D01*
X80932776Y-176879198D01*
X80926748Y-176881882D01*
X80921407Y-176885762D01*
X80921406Y-176885763D01*
X80877635Y-176917565D01*
X80772247Y-176994134D01*
X80767834Y-176999036D01*
X80767832Y-176999037D01*
X80755430Y-177012811D01*
X80694984Y-177050050D01*
X80661794Y-177054500D01*
X79812453Y-177054500D01*
X79744332Y-177034498D01*
X79718818Y-177012811D01*
X79713174Y-177006542D01*
X79713165Y-177006533D01*
X79708753Y-177001634D01*
X79687171Y-176985954D01*
X79559594Y-176893263D01*
X79559593Y-176893262D01*
X79554252Y-176889382D01*
X79548224Y-176886698D01*
X79548222Y-176886697D01*
X79385819Y-176814391D01*
X79385818Y-176814391D01*
X79379788Y-176811706D01*
X79278296Y-176790133D01*
X79199444Y-176773372D01*
X79199439Y-176773372D01*
X79192987Y-176772000D01*
X79002013Y-176772000D01*
X78995561Y-176773372D01*
X78995556Y-176773372D01*
X78916704Y-176790133D01*
X78815212Y-176811706D01*
X78809182Y-176814391D01*
X78809181Y-176814391D01*
X78646778Y-176886697D01*
X78646776Y-176886698D01*
X78640748Y-176889382D01*
X78635407Y-176893262D01*
X78635406Y-176893263D01*
X78507829Y-176985954D01*
X78486247Y-177001634D01*
X78481835Y-177006533D01*
X78481826Y-177006542D01*
X78476182Y-177012811D01*
X78415736Y-177050050D01*
X78382547Y-177054500D01*
X77533206Y-177054500D01*
X77465085Y-177034498D01*
X77439570Y-177012811D01*
X77427168Y-176999037D01*
X77427166Y-176999036D01*
X77422753Y-176994134D01*
X77317365Y-176917565D01*
X77273594Y-176885763D01*
X77273593Y-176885762D01*
X77268252Y-176881882D01*
X77262224Y-176879198D01*
X77262222Y-176879197D01*
X77099819Y-176806891D01*
X77099818Y-176806891D01*
X77093788Y-176804206D01*
X77000388Y-176784353D01*
X76913444Y-176765872D01*
X76913439Y-176765872D01*
X76906987Y-176764500D01*
X76716013Y-176764500D01*
X76709561Y-176765872D01*
X76709556Y-176765872D01*
X76622612Y-176784353D01*
X76529212Y-176804206D01*
X76523182Y-176806891D01*
X76523181Y-176806891D01*
X76360778Y-176879197D01*
X76360776Y-176879198D01*
X76354748Y-176881882D01*
X76349407Y-176885762D01*
X76349406Y-176885763D01*
X76305635Y-176917565D01*
X76200247Y-176994134D01*
X76195834Y-176999036D01*
X76195832Y-176999037D01*
X76183430Y-177012811D01*
X76122984Y-177050050D01*
X76089794Y-177054500D01*
X75247206Y-177054500D01*
X75179085Y-177034498D01*
X75153570Y-177012811D01*
X75141168Y-176999037D01*
X75141166Y-176999036D01*
X75136753Y-176994134D01*
X75031365Y-176917565D01*
X74987594Y-176885763D01*
X74987593Y-176885762D01*
X74982252Y-176881882D01*
X74976224Y-176879198D01*
X74976222Y-176879197D01*
X74813819Y-176806891D01*
X74813818Y-176806891D01*
X74807788Y-176804206D01*
X74714388Y-176784353D01*
X74627444Y-176765872D01*
X74627439Y-176765872D01*
X74620987Y-176764500D01*
X74430013Y-176764500D01*
X74423561Y-176765872D01*
X74423556Y-176765872D01*
X74336612Y-176784353D01*
X74243212Y-176804206D01*
X74237182Y-176806891D01*
X74237181Y-176806891D01*
X74074778Y-176879197D01*
X74074776Y-176879198D01*
X74068748Y-176881882D01*
X74063407Y-176885762D01*
X74063406Y-176885763D01*
X74019635Y-176917565D01*
X73914247Y-176994134D01*
X73909834Y-176999036D01*
X73909832Y-176999037D01*
X73897430Y-177012811D01*
X73836984Y-177050050D01*
X73803794Y-177054500D01*
X73088206Y-177054500D01*
X73020085Y-177034498D01*
X72994570Y-177012811D01*
X72982168Y-176999037D01*
X72982166Y-176999036D01*
X72977753Y-176994134D01*
X72872365Y-176917565D01*
X72828594Y-176885763D01*
X72828593Y-176885762D01*
X72823252Y-176881882D01*
X72817224Y-176879198D01*
X72817222Y-176879197D01*
X72654819Y-176806891D01*
X72654818Y-176806891D01*
X72648788Y-176804206D01*
X72555388Y-176784353D01*
X72468444Y-176765872D01*
X72468439Y-176765872D01*
X72461987Y-176764500D01*
X72271013Y-176764500D01*
X72264561Y-176765872D01*
X72264556Y-176765872D01*
X72177612Y-176784353D01*
X72084212Y-176804206D01*
X72078182Y-176806891D01*
X72078181Y-176806891D01*
X71915778Y-176879197D01*
X71915776Y-176879198D01*
X71909748Y-176881882D01*
X71904407Y-176885762D01*
X71904406Y-176885763D01*
X71860635Y-176917565D01*
X71755247Y-176994134D01*
X71750834Y-176999036D01*
X71750832Y-176999037D01*
X71738430Y-177012811D01*
X71677984Y-177050050D01*
X71644794Y-177054500D01*
X70802206Y-177054500D01*
X70734085Y-177034498D01*
X70708570Y-177012811D01*
X70696168Y-176999037D01*
X70696166Y-176999036D01*
X70691753Y-176994134D01*
X70586365Y-176917565D01*
X70542594Y-176885763D01*
X70542593Y-176885762D01*
X70537252Y-176881882D01*
X70531224Y-176879198D01*
X70531222Y-176879197D01*
X70368819Y-176806891D01*
X70368818Y-176806891D01*
X70362788Y-176804206D01*
X70269388Y-176784353D01*
X70182444Y-176765872D01*
X70182439Y-176765872D01*
X70175987Y-176764500D01*
X69985013Y-176764500D01*
X69978561Y-176765872D01*
X69978556Y-176765872D01*
X69891612Y-176784353D01*
X69798212Y-176804206D01*
X69792182Y-176806891D01*
X69792181Y-176806891D01*
X69629778Y-176879197D01*
X69629776Y-176879198D01*
X69623748Y-176881882D01*
X69618407Y-176885762D01*
X69618406Y-176885763D01*
X69574635Y-176917565D01*
X69469247Y-176994134D01*
X69464834Y-176999036D01*
X69464832Y-176999037D01*
X69452430Y-177012811D01*
X69391984Y-177050050D01*
X69358794Y-177054500D01*
X68516206Y-177054500D01*
X68448085Y-177034498D01*
X68422570Y-177012811D01*
X68410168Y-176999037D01*
X68410166Y-176999036D01*
X68405753Y-176994134D01*
X68300365Y-176917565D01*
X68256594Y-176885763D01*
X68256593Y-176885762D01*
X68251252Y-176881882D01*
X68245224Y-176879198D01*
X68245222Y-176879197D01*
X68082819Y-176806891D01*
X68082818Y-176806891D01*
X68076788Y-176804206D01*
X67983388Y-176784353D01*
X67896444Y-176765872D01*
X67896439Y-176765872D01*
X67889987Y-176764500D01*
X67699013Y-176764500D01*
X67692561Y-176765872D01*
X67692556Y-176765872D01*
X67605612Y-176784353D01*
X67512212Y-176804206D01*
X67506182Y-176806891D01*
X67506181Y-176806891D01*
X67343778Y-176879197D01*
X67343776Y-176879198D01*
X67337748Y-176881882D01*
X67332407Y-176885762D01*
X67332406Y-176885763D01*
X67300729Y-176908778D01*
X67183247Y-176994134D01*
X67178826Y-176999044D01*
X67178825Y-176999045D01*
X67081437Y-177107206D01*
X67055460Y-177136056D01*
X66959973Y-177301444D01*
X66900958Y-177483072D01*
X66900268Y-177489633D01*
X66900268Y-177489635D01*
X66887003Y-177615845D01*
X66880996Y-177673000D01*
X66881686Y-177679565D01*
X66900200Y-177855713D01*
X66900958Y-177862928D01*
X66959973Y-178044556D01*
X66963276Y-178050278D01*
X66963277Y-178050279D01*
X66997186Y-178109010D01*
X67055460Y-178209944D01*
X67059878Y-178214851D01*
X67059879Y-178214852D01*
X67146903Y-178311502D01*
X67183247Y-178351866D01*
X67277442Y-178420303D01*
X67320647Y-178451693D01*
X67337748Y-178464118D01*
X67343776Y-178466802D01*
X67343778Y-178466803D01*
X67496952Y-178535000D01*
X67512212Y-178541794D01*
X67605613Y-178561647D01*
X67692556Y-178580128D01*
X67692561Y-178580128D01*
X67699013Y-178581500D01*
X67889987Y-178581500D01*
X67896439Y-178580128D01*
X67896444Y-178580128D01*
X67983387Y-178561647D01*
X68076788Y-178541794D01*
X68092048Y-178535000D01*
X68245222Y-178466803D01*
X68245224Y-178466802D01*
X68251252Y-178464118D01*
X68268354Y-178451693D01*
X68395430Y-178359366D01*
X68405753Y-178351866D01*
X68410173Y-178346958D01*
X68422570Y-178333189D01*
X68483016Y-178295950D01*
X68516206Y-178291500D01*
X69358794Y-178291500D01*
X69426915Y-178311502D01*
X69452430Y-178333189D01*
X69464828Y-178346958D01*
X69469247Y-178351866D01*
X69479570Y-178359366D01*
X69606647Y-178451693D01*
X69623748Y-178464118D01*
X69629776Y-178466802D01*
X69629778Y-178466803D01*
X69782952Y-178535000D01*
X69798212Y-178541794D01*
X69891613Y-178561647D01*
X69978556Y-178580128D01*
X69978561Y-178580128D01*
X69985013Y-178581500D01*
X70175987Y-178581500D01*
X70182439Y-178580128D01*
X70182444Y-178580128D01*
X70269387Y-178561647D01*
X70362788Y-178541794D01*
X70378048Y-178535000D01*
X70531222Y-178466803D01*
X70531224Y-178466802D01*
X70537252Y-178464118D01*
X70554354Y-178451693D01*
X70681430Y-178359366D01*
X70691753Y-178351866D01*
X70696173Y-178346958D01*
X70708570Y-178333189D01*
X70769016Y-178295950D01*
X70802206Y-178291500D01*
X71644794Y-178291500D01*
X71712915Y-178311502D01*
X71738430Y-178333189D01*
X71750828Y-178346958D01*
X71755247Y-178351866D01*
X71765570Y-178359366D01*
X71892647Y-178451693D01*
X71909748Y-178464118D01*
X71915776Y-178466802D01*
X71915778Y-178466803D01*
X72068952Y-178535000D01*
X72084212Y-178541794D01*
X72177613Y-178561647D01*
X72264556Y-178580128D01*
X72264561Y-178580128D01*
X72271013Y-178581500D01*
X72461987Y-178581500D01*
X72468439Y-178580128D01*
X72468444Y-178580128D01*
X72555387Y-178561647D01*
X72648788Y-178541794D01*
X72664048Y-178535000D01*
X72817222Y-178466803D01*
X72817224Y-178466802D01*
X72823252Y-178464118D01*
X72840354Y-178451693D01*
X72967430Y-178359366D01*
X72977753Y-178351866D01*
X72982173Y-178346958D01*
X72994570Y-178333189D01*
X73055016Y-178295950D01*
X73088206Y-178291500D01*
X73803794Y-178291500D01*
X73871915Y-178311502D01*
X73897430Y-178333189D01*
X73909828Y-178346958D01*
X73914247Y-178351866D01*
X73924570Y-178359366D01*
X74051647Y-178451693D01*
X74068748Y-178464118D01*
X74074776Y-178466802D01*
X74074778Y-178466803D01*
X74227952Y-178535000D01*
X74243212Y-178541794D01*
X74336613Y-178561647D01*
X74423556Y-178580128D01*
X74423561Y-178580128D01*
X74430013Y-178581500D01*
X74620987Y-178581500D01*
X74627439Y-178580128D01*
X74627444Y-178580128D01*
X74714387Y-178561647D01*
X74807788Y-178541794D01*
X74823048Y-178535000D01*
X74976222Y-178466803D01*
X74976224Y-178466802D01*
X74982252Y-178464118D01*
X74999354Y-178451693D01*
X75126430Y-178359366D01*
X75136753Y-178351866D01*
X75141173Y-178346958D01*
X75153570Y-178333189D01*
X75214016Y-178295950D01*
X75247206Y-178291500D01*
X76089794Y-178291500D01*
X76157915Y-178311502D01*
X76183430Y-178333189D01*
X76195828Y-178346958D01*
X76200247Y-178351866D01*
X76210570Y-178359366D01*
X76337647Y-178451693D01*
X76354748Y-178464118D01*
X76360776Y-178466802D01*
X76360778Y-178466803D01*
X76513952Y-178535000D01*
X76529212Y-178541794D01*
X76622613Y-178561647D01*
X76709556Y-178580128D01*
X76709561Y-178580128D01*
X76716013Y-178581500D01*
X76906987Y-178581500D01*
X76913439Y-178580128D01*
X76913444Y-178580128D01*
X77000387Y-178561647D01*
X77093788Y-178541794D01*
X77109048Y-178535000D01*
X77262222Y-178466803D01*
X77262224Y-178466802D01*
X77268252Y-178464118D01*
X77285354Y-178451693D01*
X77412430Y-178359366D01*
X77422753Y-178351866D01*
X77427173Y-178346958D01*
X77439570Y-178333189D01*
X77500016Y-178295950D01*
X77533206Y-178291500D01*
X78369041Y-178291500D01*
X78437162Y-178311502D01*
X78462677Y-178333189D01*
X78486247Y-178359366D01*
X78507829Y-178375046D01*
X78634121Y-178466803D01*
X78640748Y-178471618D01*
X78646776Y-178474302D01*
X78646778Y-178474303D01*
X78801448Y-178543166D01*
X78815212Y-178549294D01*
X78908613Y-178569147D01*
X78995556Y-178587628D01*
X78995561Y-178587628D01*
X79002013Y-178589000D01*
X79192987Y-178589000D01*
X79199439Y-178587628D01*
X79199444Y-178587628D01*
X79286387Y-178569147D01*
X79379788Y-178549294D01*
X79393552Y-178543166D01*
X79548222Y-178474303D01*
X79548224Y-178474302D01*
X79554252Y-178471618D01*
X79560880Y-178466803D01*
X79687171Y-178375046D01*
X79708753Y-178359366D01*
X79732323Y-178333189D01*
X79792769Y-178295950D01*
X79825959Y-178291500D01*
X80661794Y-178291500D01*
X80729915Y-178311502D01*
X80755430Y-178333189D01*
X80767828Y-178346958D01*
X80772247Y-178351866D01*
X80782570Y-178359366D01*
X80909647Y-178451693D01*
X80926748Y-178464118D01*
X80932776Y-178466802D01*
X80932778Y-178466803D01*
X81085952Y-178535000D01*
X81101212Y-178541794D01*
X81194613Y-178561647D01*
X81281556Y-178580128D01*
X81281561Y-178580128D01*
X81288013Y-178581500D01*
X81478987Y-178581500D01*
X81485439Y-178580128D01*
X81485444Y-178580128D01*
X81572387Y-178561647D01*
X81665788Y-178541794D01*
X81681048Y-178535000D01*
X81834222Y-178466803D01*
X81834224Y-178466802D01*
X81840252Y-178464118D01*
X81857354Y-178451693D01*
X81984430Y-178359366D01*
X81994753Y-178351866D01*
X81999173Y-178346958D01*
X82011570Y-178333189D01*
X82072016Y-178295950D01*
X82105206Y-178291500D01*
X82947794Y-178291500D01*
X83015915Y-178311502D01*
X83041430Y-178333189D01*
X83053828Y-178346958D01*
X83058247Y-178351866D01*
X83068570Y-178359366D01*
X83195647Y-178451693D01*
X83212748Y-178464118D01*
X83218776Y-178466802D01*
X83218778Y-178466803D01*
X83371952Y-178535000D01*
X83387212Y-178541794D01*
X83480613Y-178561647D01*
X83567556Y-178580128D01*
X83567561Y-178580128D01*
X83574013Y-178581500D01*
X83764987Y-178581500D01*
X83771439Y-178580128D01*
X83771444Y-178580128D01*
X83858387Y-178561647D01*
X83951788Y-178541794D01*
X83967048Y-178535000D01*
X84120222Y-178466803D01*
X84120224Y-178466802D01*
X84126252Y-178464118D01*
X84143354Y-178451693D01*
X84186558Y-178420303D01*
X84280753Y-178351866D01*
X84317097Y-178311502D01*
X84404121Y-178214852D01*
X84404122Y-178214851D01*
X84408540Y-178209944D01*
X84466814Y-178109010D01*
X84500723Y-178050279D01*
X84500724Y-178050278D01*
X84504027Y-178044556D01*
X84563042Y-177862928D01*
X84563801Y-177855713D01*
X84582899Y-177674001D01*
X84609912Y-177608345D01*
X84619114Y-177598077D01*
X84852593Y-177364598D01*
X84914905Y-177330572D01*
X84985720Y-177335637D01*
X85042556Y-177378184D01*
X85067367Y-177444704D01*
X85064934Y-177479892D01*
X85063999Y-177484290D01*
X85061958Y-177490572D01*
X85041996Y-177680500D01*
X85042686Y-177687065D01*
X85059524Y-177847266D01*
X85061958Y-177870428D01*
X85120973Y-178052056D01*
X85216460Y-178217444D01*
X85220878Y-178222351D01*
X85220879Y-178222352D01*
X85301150Y-178311502D01*
X85344247Y-178359366D01*
X85407332Y-178405200D01*
X85492121Y-178466803D01*
X85498748Y-178471618D01*
X85504776Y-178474302D01*
X85504778Y-178474303D01*
X85659448Y-178543166D01*
X85673212Y-178549294D01*
X85766613Y-178569147D01*
X85853556Y-178587628D01*
X85853561Y-178587628D01*
X85860013Y-178589000D01*
X86050987Y-178589000D01*
X86057439Y-178587628D01*
X86057444Y-178587628D01*
X86144387Y-178569147D01*
X86237788Y-178549294D01*
X86251552Y-178543166D01*
X86406222Y-178474303D01*
X86406224Y-178474302D01*
X86412252Y-178471618D01*
X86418880Y-178466803D01*
X86545171Y-178375046D01*
X86566753Y-178359366D01*
X86583570Y-178340689D01*
X86644016Y-178303450D01*
X86677206Y-178299000D01*
X87527294Y-178299000D01*
X87595415Y-178319002D01*
X87620930Y-178340689D01*
X87637747Y-178359366D01*
X87659329Y-178375046D01*
X87785621Y-178466803D01*
X87792248Y-178471618D01*
X87798276Y-178474302D01*
X87798278Y-178474303D01*
X87952948Y-178543166D01*
X87966712Y-178549294D01*
X88060113Y-178569147D01*
X88147056Y-178587628D01*
X88147061Y-178587628D01*
X88153513Y-178589000D01*
X88344487Y-178589000D01*
X88350939Y-178587628D01*
X88350944Y-178587628D01*
X88437887Y-178569147D01*
X88531288Y-178549294D01*
X88545052Y-178543166D01*
X88699722Y-178474303D01*
X88699724Y-178474302D01*
X88705752Y-178471618D01*
X88712380Y-178466803D01*
X88838671Y-178375046D01*
X88860253Y-178359366D01*
X88877070Y-178340689D01*
X88937516Y-178303450D01*
X88970706Y-178299000D01*
X89813294Y-178299000D01*
X89881415Y-178319002D01*
X89906930Y-178340689D01*
X89923747Y-178359366D01*
X89945329Y-178375046D01*
X90071621Y-178466803D01*
X90078248Y-178471618D01*
X90084276Y-178474302D01*
X90084278Y-178474303D01*
X90238948Y-178543166D01*
X90252712Y-178549294D01*
X90346113Y-178569147D01*
X90433056Y-178587628D01*
X90433061Y-178587628D01*
X90439513Y-178589000D01*
X90630487Y-178589000D01*
X90636939Y-178587628D01*
X90636944Y-178587628D01*
X90723887Y-178569147D01*
X90817288Y-178549294D01*
X90831052Y-178543166D01*
X90985722Y-178474303D01*
X90985724Y-178474302D01*
X90991752Y-178471618D01*
X90998380Y-178466803D01*
X91124671Y-178375046D01*
X91146253Y-178359366D01*
X91163070Y-178340689D01*
X91223516Y-178303450D01*
X91256706Y-178299000D01*
X92121758Y-178299000D01*
X92189879Y-178319002D01*
X92215394Y-178340689D01*
X92232211Y-178359366D01*
X92253793Y-178375046D01*
X92380085Y-178466803D01*
X92386712Y-178471618D01*
X92392740Y-178474302D01*
X92392742Y-178474303D01*
X92547412Y-178543166D01*
X92561176Y-178549294D01*
X92654577Y-178569147D01*
X92741520Y-178587628D01*
X92741525Y-178587628D01*
X92747977Y-178589000D01*
X92938951Y-178589000D01*
X92945403Y-178587628D01*
X92945408Y-178587628D01*
X93032351Y-178569147D01*
X93125752Y-178549294D01*
X93139516Y-178543166D01*
X93294186Y-178474303D01*
X93294188Y-178474302D01*
X93300216Y-178471618D01*
X93306844Y-178466803D01*
X93433135Y-178375046D01*
X93454717Y-178359366D01*
X93478287Y-178333189D01*
X93538733Y-178295950D01*
X93571923Y-178291500D01*
X94377794Y-178291500D01*
X94445915Y-178311502D01*
X94471430Y-178333189D01*
X94483828Y-178346958D01*
X94488247Y-178351866D01*
X94498570Y-178359366D01*
X94625647Y-178451693D01*
X94642748Y-178464118D01*
X94648776Y-178466802D01*
X94648778Y-178466803D01*
X94801952Y-178535000D01*
X94817212Y-178541794D01*
X94910613Y-178561647D01*
X94997556Y-178580128D01*
X94997561Y-178580128D01*
X95004013Y-178581500D01*
X95194987Y-178581500D01*
X95201439Y-178580128D01*
X95201444Y-178580128D01*
X95288387Y-178561647D01*
X95381788Y-178541794D01*
X95397048Y-178535000D01*
X95550222Y-178466803D01*
X95550224Y-178466802D01*
X95556252Y-178464118D01*
X95573354Y-178451693D01*
X95700430Y-178359366D01*
X95710753Y-178351866D01*
X95715173Y-178346958D01*
X95727570Y-178333189D01*
X95788016Y-178295950D01*
X95821206Y-178291500D01*
X96663794Y-178291500D01*
X96731915Y-178311502D01*
X96757430Y-178333189D01*
X96769828Y-178346958D01*
X96774247Y-178351866D01*
X96784570Y-178359366D01*
X96911647Y-178451693D01*
X96928748Y-178464118D01*
X96934776Y-178466802D01*
X96934778Y-178466803D01*
X97087952Y-178535000D01*
X97103212Y-178541794D01*
X97196613Y-178561647D01*
X97283556Y-178580128D01*
X97283561Y-178580128D01*
X97290013Y-178581500D01*
X97480987Y-178581500D01*
X97487439Y-178580128D01*
X97487444Y-178580128D01*
X97574387Y-178561647D01*
X97667788Y-178541794D01*
X97683048Y-178535000D01*
X97836222Y-178466803D01*
X97836224Y-178466802D01*
X97842252Y-178464118D01*
X97859354Y-178451693D01*
X97986430Y-178359366D01*
X97996753Y-178351866D01*
X98001168Y-178346963D01*
X98001174Y-178346958D01*
X98006818Y-178340689D01*
X98067264Y-178303450D01*
X98100453Y-178299000D01*
X99076794Y-178299000D01*
X99144915Y-178319002D01*
X99170430Y-178340689D01*
X99187247Y-178359366D01*
X99208829Y-178375046D01*
X99335121Y-178466803D01*
X99341748Y-178471618D01*
X99347776Y-178474302D01*
X99347778Y-178474303D01*
X99502448Y-178543166D01*
X99516212Y-178549294D01*
X99609613Y-178569147D01*
X99696556Y-178587628D01*
X99696561Y-178587628D01*
X99703013Y-178589000D01*
X99893987Y-178589000D01*
X99900439Y-178587628D01*
X99900444Y-178587628D01*
X99987387Y-178569147D01*
X100080788Y-178549294D01*
X100094552Y-178543166D01*
X100249222Y-178474303D01*
X100249224Y-178474302D01*
X100255252Y-178471618D01*
X100261880Y-178466803D01*
X100388171Y-178375046D01*
X100409753Y-178359366D01*
X100433323Y-178333189D01*
X100493769Y-178295950D01*
X100526959Y-178291500D01*
X101235794Y-178291500D01*
X101303915Y-178311502D01*
X101329430Y-178333189D01*
X101341828Y-178346958D01*
X101346247Y-178351866D01*
X101356570Y-178359366D01*
X101483647Y-178451693D01*
X101500748Y-178464118D01*
X101506776Y-178466802D01*
X101506778Y-178466803D01*
X101659952Y-178535000D01*
X101675212Y-178541794D01*
X101768613Y-178561647D01*
X101855556Y-178580128D01*
X101855561Y-178580128D01*
X101862013Y-178581500D01*
X102052987Y-178581500D01*
X102059439Y-178580128D01*
X102059444Y-178580128D01*
X102146387Y-178561647D01*
X102239788Y-178541794D01*
X102255048Y-178535000D01*
X102408222Y-178466803D01*
X102408224Y-178466802D01*
X102414252Y-178464118D01*
X102431354Y-178451693D01*
X102474558Y-178420303D01*
X102568753Y-178351866D01*
X102605097Y-178311502D01*
X102692121Y-178214852D01*
X102692122Y-178214851D01*
X102696540Y-178209944D01*
X102754814Y-178109010D01*
X102788723Y-178050279D01*
X102788724Y-178050278D01*
X102792027Y-178044556D01*
X102851042Y-177862928D01*
X102851801Y-177855713D01*
X102870899Y-177674001D01*
X102897912Y-177608345D01*
X102907114Y-177598077D01*
X103138568Y-177366623D01*
X103200880Y-177332597D01*
X103271695Y-177337662D01*
X103328531Y-177380209D01*
X103353342Y-177446729D01*
X103351065Y-177479666D01*
X103349958Y-177483072D01*
X103349268Y-177489633D01*
X103349268Y-177489635D01*
X103336003Y-177615845D01*
X103329996Y-177673000D01*
X103330686Y-177679565D01*
X103349200Y-177855713D01*
X103349958Y-177862928D01*
X103408973Y-178044556D01*
X103412276Y-178050278D01*
X103412277Y-178050279D01*
X103446186Y-178109010D01*
X103504460Y-178209944D01*
X103508878Y-178214851D01*
X103508879Y-178214852D01*
X103595903Y-178311502D01*
X103632247Y-178351866D01*
X103726442Y-178420303D01*
X103769647Y-178451693D01*
X103786748Y-178464118D01*
X103792776Y-178466802D01*
X103792778Y-178466803D01*
X103945952Y-178535000D01*
X103961212Y-178541794D01*
X104054613Y-178561647D01*
X104141556Y-178580128D01*
X104141561Y-178580128D01*
X104148013Y-178581500D01*
X104338987Y-178581500D01*
X104345439Y-178580128D01*
X104345444Y-178580128D01*
X104432387Y-178561647D01*
X104525788Y-178541794D01*
X104541048Y-178535000D01*
X104694222Y-178466803D01*
X104694224Y-178466802D01*
X104700252Y-178464118D01*
X104717354Y-178451693D01*
X104844430Y-178359366D01*
X104854753Y-178351866D01*
X104859173Y-178346958D01*
X104871570Y-178333189D01*
X104932016Y-178295950D01*
X104965206Y-178291500D01*
X105934794Y-178291500D01*
X106002915Y-178311502D01*
X106028430Y-178333189D01*
X106040828Y-178346958D01*
X106045247Y-178351866D01*
X106055570Y-178359366D01*
X106182647Y-178451693D01*
X106199748Y-178464118D01*
X106205776Y-178466802D01*
X106205778Y-178466803D01*
X106358952Y-178535000D01*
X106374212Y-178541794D01*
X106467613Y-178561647D01*
X106554556Y-178580128D01*
X106554561Y-178580128D01*
X106561013Y-178581500D01*
X106751987Y-178581500D01*
X106758439Y-178580128D01*
X106758444Y-178580128D01*
X106845387Y-178561647D01*
X106938788Y-178541794D01*
X106954048Y-178535000D01*
X107107222Y-178466803D01*
X107107224Y-178466802D01*
X107113252Y-178464118D01*
X107130354Y-178451693D01*
X107257430Y-178359366D01*
X107267753Y-178351866D01*
X107272168Y-178346963D01*
X107272174Y-178346958D01*
X107277818Y-178340689D01*
X107338264Y-178303450D01*
X107371453Y-178299000D01*
X108093794Y-178299000D01*
X108161915Y-178319002D01*
X108187430Y-178340689D01*
X108204247Y-178359366D01*
X108225829Y-178375046D01*
X108352121Y-178466803D01*
X108358748Y-178471618D01*
X108364776Y-178474302D01*
X108364778Y-178474303D01*
X108519448Y-178543166D01*
X108533212Y-178549294D01*
X108626613Y-178569147D01*
X108713556Y-178587628D01*
X108713561Y-178587628D01*
X108720013Y-178589000D01*
X108910987Y-178589000D01*
X108917439Y-178587628D01*
X108917444Y-178587628D01*
X109004387Y-178569147D01*
X109097788Y-178549294D01*
X109111552Y-178543166D01*
X109266222Y-178474303D01*
X109266224Y-178474302D01*
X109272252Y-178471618D01*
X109278880Y-178466803D01*
X109405171Y-178375046D01*
X109426753Y-178359366D01*
X109443570Y-178340689D01*
X109504016Y-178303450D01*
X109537206Y-178299000D01*
X110506794Y-178299000D01*
X110574915Y-178319002D01*
X110600430Y-178340689D01*
X110617247Y-178359366D01*
X110638829Y-178375046D01*
X110765121Y-178466803D01*
X110771748Y-178471618D01*
X110777776Y-178474302D01*
X110777778Y-178474303D01*
X110932448Y-178543166D01*
X110946212Y-178549294D01*
X111039613Y-178569147D01*
X111126556Y-178587628D01*
X111126561Y-178587628D01*
X111133013Y-178589000D01*
X111323987Y-178589000D01*
X111330439Y-178587628D01*
X111330444Y-178587628D01*
X111417387Y-178569147D01*
X111510788Y-178549294D01*
X111524552Y-178543166D01*
X111679222Y-178474303D01*
X111679224Y-178474302D01*
X111685252Y-178471618D01*
X111691880Y-178466803D01*
X111818171Y-178375046D01*
X111839753Y-178359366D01*
X111863323Y-178333189D01*
X111923769Y-178295950D01*
X111956959Y-178291500D01*
X112665794Y-178291500D01*
X112733915Y-178311502D01*
X112759430Y-178333189D01*
X112771828Y-178346958D01*
X112776247Y-178351866D01*
X112786570Y-178359366D01*
X112913647Y-178451693D01*
X112930748Y-178464118D01*
X112936776Y-178466802D01*
X112936778Y-178466803D01*
X113089952Y-178535000D01*
X113105212Y-178541794D01*
X113198613Y-178561647D01*
X113285556Y-178580128D01*
X113285561Y-178580128D01*
X113292013Y-178581500D01*
X113482987Y-178581500D01*
X113489439Y-178580128D01*
X113489444Y-178580128D01*
X113576387Y-178561647D01*
X113669788Y-178541794D01*
X113685048Y-178535000D01*
X113838222Y-178466803D01*
X113838224Y-178466802D01*
X113844252Y-178464118D01*
X113861354Y-178451693D01*
X113988430Y-178359366D01*
X113998753Y-178351866D01*
X114003168Y-178346963D01*
X114003174Y-178346958D01*
X114008818Y-178340689D01*
X114069264Y-178303450D01*
X114102453Y-178299000D01*
X114981758Y-178299000D01*
X115049879Y-178319002D01*
X115075394Y-178340689D01*
X115092211Y-178359366D01*
X115113793Y-178375046D01*
X115240085Y-178466803D01*
X115246712Y-178471618D01*
X115252740Y-178474302D01*
X115252742Y-178474303D01*
X115407412Y-178543166D01*
X115421176Y-178549294D01*
X115514577Y-178569147D01*
X115601520Y-178587628D01*
X115601525Y-178587628D01*
X115607977Y-178589000D01*
X115798951Y-178589000D01*
X115805403Y-178587628D01*
X115805408Y-178587628D01*
X115892351Y-178569147D01*
X115985752Y-178549294D01*
X115999516Y-178543166D01*
X116154186Y-178474303D01*
X116154188Y-178474302D01*
X116160216Y-178471618D01*
X116166844Y-178466803D01*
X116293135Y-178375046D01*
X116314717Y-178359366D01*
X116331534Y-178340689D01*
X116391980Y-178303450D01*
X116425170Y-178299000D01*
X117372294Y-178299000D01*
X117440415Y-178319002D01*
X117465930Y-178340689D01*
X117482747Y-178359366D01*
X117504329Y-178375046D01*
X117630621Y-178466803D01*
X117637248Y-178471618D01*
X117643276Y-178474302D01*
X117643278Y-178474303D01*
X117797948Y-178543166D01*
X117811712Y-178549294D01*
X117905113Y-178569147D01*
X117992056Y-178587628D01*
X117992061Y-178587628D01*
X117998513Y-178589000D01*
X118189487Y-178589000D01*
X118195939Y-178587628D01*
X118195944Y-178587628D01*
X118282887Y-178569147D01*
X118376288Y-178549294D01*
X118390052Y-178543166D01*
X118544722Y-178474303D01*
X118544724Y-178474302D01*
X118550752Y-178471618D01*
X118557380Y-178466803D01*
X118683671Y-178375046D01*
X118705253Y-178359366D01*
X118722070Y-178340689D01*
X118782516Y-178303450D01*
X118815706Y-178299000D01*
X119523794Y-178299000D01*
X119591915Y-178319002D01*
X119617430Y-178340689D01*
X119634247Y-178359366D01*
X119655829Y-178375046D01*
X119782121Y-178466803D01*
X119788748Y-178471618D01*
X119794776Y-178474302D01*
X119794778Y-178474303D01*
X119949448Y-178543166D01*
X119963212Y-178549294D01*
X120056613Y-178569147D01*
X120143556Y-178587628D01*
X120143561Y-178587628D01*
X120150013Y-178589000D01*
X120340987Y-178589000D01*
X120347439Y-178587628D01*
X120347444Y-178587628D01*
X120434387Y-178569147D01*
X120527788Y-178549294D01*
X120541552Y-178543166D01*
X120696222Y-178474303D01*
X120696224Y-178474302D01*
X120702252Y-178471618D01*
X120708880Y-178466803D01*
X120793668Y-178405200D01*
X120856753Y-178359366D01*
X120899850Y-178311502D01*
X120980121Y-178222352D01*
X120980122Y-178222351D01*
X120984540Y-178217444D01*
X121080027Y-178052056D01*
X121139042Y-177870428D01*
X121139831Y-177862928D01*
X121158899Y-177681501D01*
X121185912Y-177615845D01*
X121195114Y-177605577D01*
X121228786Y-177571905D01*
X121291098Y-177537879D01*
X121317881Y-177535000D01*
X121563075Y-177535000D01*
X121631196Y-177555002D01*
X121677689Y-177608658D01*
X121688385Y-177647829D01*
X121691720Y-177679565D01*
X121704292Y-177799174D01*
X121706105Y-177816428D01*
X121765120Y-177998056D01*
X121768423Y-178003778D01*
X121768424Y-178003779D01*
X121788338Y-178038271D01*
X121860607Y-178163444D01*
X121865025Y-178168351D01*
X121865026Y-178168352D01*
X121949347Y-178262000D01*
X121988394Y-178305366D01*
X122142895Y-178417618D01*
X122148923Y-178420302D01*
X122148925Y-178420303D01*
X122311328Y-178492609D01*
X122317359Y-178495294D01*
X122410759Y-178515147D01*
X122497703Y-178533628D01*
X122497708Y-178533628D01*
X122504160Y-178535000D01*
X122695134Y-178535000D01*
X122701586Y-178533628D01*
X122701591Y-178533628D01*
X122788535Y-178515147D01*
X122881935Y-178495294D01*
X122887966Y-178492609D01*
X123050369Y-178420303D01*
X123050371Y-178420302D01*
X123056399Y-178417618D01*
X123146899Y-178351866D01*
X123202455Y-178311502D01*
X123210900Y-178305366D01*
X123215315Y-178300463D01*
X123220227Y-178296040D01*
X123221868Y-178297862D01*
X123272857Y-178266450D01*
X123306046Y-178262000D01*
X124111101Y-178262000D01*
X124179222Y-178282002D01*
X124196408Y-178296609D01*
X124196920Y-178296040D01*
X124201832Y-178300463D01*
X124206247Y-178305366D01*
X124214692Y-178311502D01*
X124270249Y-178351866D01*
X124360748Y-178417618D01*
X124366776Y-178420302D01*
X124366778Y-178420303D01*
X124529181Y-178492609D01*
X124535212Y-178495294D01*
X124628612Y-178515147D01*
X124715556Y-178533628D01*
X124715561Y-178533628D01*
X124722013Y-178535000D01*
X124912987Y-178535000D01*
X124919439Y-178533628D01*
X124919444Y-178533628D01*
X125006388Y-178515147D01*
X125099788Y-178495294D01*
X125105819Y-178492609D01*
X125268222Y-178420303D01*
X125268224Y-178420302D01*
X125274252Y-178417618D01*
X125364752Y-178351866D01*
X125420308Y-178311502D01*
X125428753Y-178305366D01*
X125433168Y-178300463D01*
X125438080Y-178296040D01*
X125439721Y-178297862D01*
X125490710Y-178266450D01*
X125523899Y-178262000D01*
X126443601Y-178262000D01*
X126511722Y-178282002D01*
X126528908Y-178296609D01*
X126529420Y-178296040D01*
X126534332Y-178300463D01*
X126538747Y-178305366D01*
X126547192Y-178311502D01*
X126602749Y-178351866D01*
X126693248Y-178417618D01*
X126699276Y-178420302D01*
X126699278Y-178420303D01*
X126861681Y-178492609D01*
X126867712Y-178495294D01*
X126961112Y-178515147D01*
X127048056Y-178533628D01*
X127048061Y-178533628D01*
X127054513Y-178535000D01*
X127245487Y-178535000D01*
X127251939Y-178533628D01*
X127251944Y-178533628D01*
X127338888Y-178515147D01*
X127432288Y-178495294D01*
X127438319Y-178492609D01*
X127600722Y-178420303D01*
X127600724Y-178420302D01*
X127606752Y-178417618D01*
X127697252Y-178351866D01*
X127752808Y-178311502D01*
X127761253Y-178305366D01*
X127765668Y-178300463D01*
X127770580Y-178296040D01*
X127772221Y-178297862D01*
X127823210Y-178266450D01*
X127856399Y-178262000D01*
X128729601Y-178262000D01*
X128797722Y-178282002D01*
X128814908Y-178296609D01*
X128815420Y-178296040D01*
X128820332Y-178300463D01*
X128824747Y-178305366D01*
X128833192Y-178311502D01*
X128888749Y-178351866D01*
X128979248Y-178417618D01*
X128985276Y-178420302D01*
X128985278Y-178420303D01*
X129147681Y-178492609D01*
X129153712Y-178495294D01*
X129247112Y-178515147D01*
X129334056Y-178533628D01*
X129334061Y-178533628D01*
X129340513Y-178535000D01*
X129531487Y-178535000D01*
X129537939Y-178533628D01*
X129537944Y-178533628D01*
X129624888Y-178515147D01*
X129718288Y-178495294D01*
X129724319Y-178492609D01*
X129886722Y-178420303D01*
X129886724Y-178420302D01*
X129892752Y-178417618D01*
X129983252Y-178351866D01*
X130038808Y-178311502D01*
X130047253Y-178305366D01*
X130051668Y-178300463D01*
X130056580Y-178296040D01*
X130058221Y-178297862D01*
X130109210Y-178266450D01*
X130142399Y-178262000D01*
X131015601Y-178262000D01*
X131083722Y-178282002D01*
X131100908Y-178296609D01*
X131101420Y-178296040D01*
X131106332Y-178300463D01*
X131110747Y-178305366D01*
X131119192Y-178311502D01*
X131174749Y-178351866D01*
X131265248Y-178417618D01*
X131271276Y-178420302D01*
X131271278Y-178420303D01*
X131433681Y-178492609D01*
X131439712Y-178495294D01*
X131533112Y-178515147D01*
X131620056Y-178533628D01*
X131620061Y-178533628D01*
X131626513Y-178535000D01*
X131817487Y-178535000D01*
X131823939Y-178533628D01*
X131823944Y-178533628D01*
X131910888Y-178515147D01*
X132004288Y-178495294D01*
X132010319Y-178492609D01*
X132172722Y-178420303D01*
X132172724Y-178420302D01*
X132178752Y-178417618D01*
X132269252Y-178351866D01*
X132324808Y-178311502D01*
X132333253Y-178305366D01*
X132337668Y-178300463D01*
X132342580Y-178296040D01*
X132344221Y-178297862D01*
X132395210Y-178266450D01*
X132428399Y-178262000D01*
X133255101Y-178262000D01*
X133323222Y-178282002D01*
X133340408Y-178296609D01*
X133340920Y-178296040D01*
X133345832Y-178300463D01*
X133350247Y-178305366D01*
X133358692Y-178311502D01*
X133414249Y-178351866D01*
X133504748Y-178417618D01*
X133510776Y-178420302D01*
X133510778Y-178420303D01*
X133673181Y-178492609D01*
X133679212Y-178495294D01*
X133772612Y-178515147D01*
X133859556Y-178533628D01*
X133859561Y-178533628D01*
X133866013Y-178535000D01*
X134056987Y-178535000D01*
X134063439Y-178533628D01*
X134063444Y-178533628D01*
X134150388Y-178515147D01*
X134243788Y-178495294D01*
X134249819Y-178492609D01*
X134412222Y-178420303D01*
X134412224Y-178420302D01*
X134418252Y-178417618D01*
X134508752Y-178351866D01*
X134564308Y-178311502D01*
X134572753Y-178305366D01*
X134577168Y-178300463D01*
X134582080Y-178296040D01*
X134583721Y-178297862D01*
X134634710Y-178266450D01*
X134667899Y-178262000D01*
X135541101Y-178262000D01*
X135609222Y-178282002D01*
X135626408Y-178296609D01*
X135626920Y-178296040D01*
X135631832Y-178300463D01*
X135636247Y-178305366D01*
X135644692Y-178311502D01*
X135700249Y-178351866D01*
X135790748Y-178417618D01*
X135796776Y-178420302D01*
X135796778Y-178420303D01*
X135959181Y-178492609D01*
X135965212Y-178495294D01*
X136058612Y-178515147D01*
X136145556Y-178533628D01*
X136145561Y-178533628D01*
X136152013Y-178535000D01*
X136342987Y-178535000D01*
X136349439Y-178533628D01*
X136349444Y-178533628D01*
X136436388Y-178515147D01*
X136529788Y-178495294D01*
X136535819Y-178492609D01*
X136698222Y-178420303D01*
X136698224Y-178420302D01*
X136704252Y-178417618D01*
X136794752Y-178351866D01*
X136850308Y-178311502D01*
X136858753Y-178305366D01*
X136863168Y-178300463D01*
X136868080Y-178296040D01*
X136869721Y-178297862D01*
X136920710Y-178266450D01*
X136953899Y-178262000D01*
X137827101Y-178262000D01*
X137895222Y-178282002D01*
X137912408Y-178296609D01*
X137912920Y-178296040D01*
X137917832Y-178300463D01*
X137922247Y-178305366D01*
X137930692Y-178311502D01*
X137986249Y-178351866D01*
X138076748Y-178417618D01*
X138082776Y-178420302D01*
X138082778Y-178420303D01*
X138245181Y-178492609D01*
X138251212Y-178495294D01*
X138344612Y-178515147D01*
X138431556Y-178533628D01*
X138431561Y-178533628D01*
X138438013Y-178535000D01*
X138628987Y-178535000D01*
X138635439Y-178533628D01*
X138635444Y-178533628D01*
X138722388Y-178515147D01*
X138815788Y-178495294D01*
X138821819Y-178492609D01*
X138984222Y-178420303D01*
X138984224Y-178420302D01*
X138990252Y-178417618D01*
X139144753Y-178305366D01*
X139183800Y-178262000D01*
X139268121Y-178168352D01*
X139268122Y-178168351D01*
X139272540Y-178163444D01*
X139344809Y-178038271D01*
X139364723Y-178003779D01*
X139364724Y-178003778D01*
X139368027Y-177998056D01*
X139397980Y-177905871D01*
X139438054Y-177847266D01*
X139503451Y-177819629D01*
X139573408Y-177831736D01*
X139606908Y-177855713D01*
X139619829Y-177868634D01*
X139653855Y-177930946D01*
X139656044Y-177944558D01*
X139669951Y-178076870D01*
X139675901Y-178133485D01*
X139734916Y-178315113D01*
X139738219Y-178320835D01*
X139738220Y-178320836D01*
X139762705Y-178363245D01*
X139830403Y-178480501D01*
X139834821Y-178485408D01*
X139834822Y-178485409D01*
X139844958Y-178496666D01*
X139958190Y-178622423D01*
X140112691Y-178734675D01*
X140118719Y-178737359D01*
X140118721Y-178737360D01*
X140229950Y-178786882D01*
X140287155Y-178812351D01*
X140380555Y-178832204D01*
X140467499Y-178850685D01*
X140467504Y-178850685D01*
X140473956Y-178852057D01*
X140498839Y-178852057D01*
X140566960Y-178872059D01*
X140613453Y-178925715D01*
X140623557Y-178995989D01*
X140594063Y-179060569D01*
X140576066Y-179077616D01*
X140571230Y-179081367D01*
X140564404Y-179085404D01*
X140550588Y-179099220D01*
X140535555Y-179112060D01*
X140519742Y-179123549D01*
X140508954Y-179136590D01*
X140492313Y-179156705D01*
X140484323Y-179165485D01*
X140255213Y-179394595D01*
X140192901Y-179428621D01*
X140166118Y-179431500D01*
X140089013Y-179431500D01*
X140082561Y-179432872D01*
X140082556Y-179432872D01*
X139995612Y-179451353D01*
X139902212Y-179471206D01*
X139896182Y-179473891D01*
X139896181Y-179473891D01*
X139733778Y-179546197D01*
X139733776Y-179546198D01*
X139727748Y-179548882D01*
X139573247Y-179661134D01*
X139568826Y-179666044D01*
X139568825Y-179666045D01*
X139473354Y-179772077D01*
X139445460Y-179803056D01*
X139349973Y-179968444D01*
X139290958Y-180150072D01*
X139290268Y-180156633D01*
X139290268Y-180156635D01*
X139280151Y-180252894D01*
X139270996Y-180340000D01*
X139271686Y-180346565D01*
X139284881Y-180472104D01*
X139290958Y-180529928D01*
X139349973Y-180711556D01*
X139353276Y-180717278D01*
X139353277Y-180717279D01*
X139373403Y-180752138D01*
X139445460Y-180876944D01*
X139449878Y-180881851D01*
X139449879Y-180881852D01*
X139533750Y-180975000D01*
X139573247Y-181018866D01*
X139727748Y-181131118D01*
X139733776Y-181133802D01*
X139733778Y-181133803D01*
X139827926Y-181175720D01*
X139902212Y-181208794D01*
X139995613Y-181228647D01*
X140082556Y-181247128D01*
X140082561Y-181247128D01*
X140089013Y-181248500D01*
X140279987Y-181248500D01*
X140286439Y-181247128D01*
X140286444Y-181247128D01*
X140373387Y-181228647D01*
X140466788Y-181208794D01*
X140541074Y-181175720D01*
X140635222Y-181133803D01*
X140635224Y-181133802D01*
X140641252Y-181131118D01*
X140795753Y-181018866D01*
X140835250Y-180975000D01*
X140919121Y-180881852D01*
X140919122Y-180881851D01*
X140923540Y-180876944D01*
X140995597Y-180752138D01*
X141015723Y-180717279D01*
X141015724Y-180717278D01*
X141019027Y-180711556D01*
X141078042Y-180529928D01*
X141083858Y-180474598D01*
X141097899Y-180341001D01*
X141124912Y-180275345D01*
X141134114Y-180265077D01*
X141165786Y-180233405D01*
X141228098Y-180199379D01*
X141254881Y-180196500D01*
X143337141Y-180196500D01*
X143405262Y-180216502D01*
X143451755Y-180270158D01*
X143461008Y-180326830D01*
X143462686Y-180326830D01*
X143462686Y-180333435D01*
X143461996Y-180340000D01*
X143462686Y-180346565D01*
X143475881Y-180472104D01*
X143481958Y-180529928D01*
X143540973Y-180711556D01*
X143544276Y-180717278D01*
X143544277Y-180717279D01*
X143564403Y-180752138D01*
X143636460Y-180876944D01*
X143640878Y-180881851D01*
X143640879Y-180881852D01*
X143724750Y-180975000D01*
X143764247Y-181018866D01*
X143918748Y-181131118D01*
X143924776Y-181133802D01*
X143924778Y-181133803D01*
X144018926Y-181175720D01*
X144093212Y-181208794D01*
X144186613Y-181228647D01*
X144273556Y-181247128D01*
X144273561Y-181247128D01*
X144280013Y-181248500D01*
X144470987Y-181248500D01*
X144477439Y-181247128D01*
X144477444Y-181247128D01*
X144564387Y-181228647D01*
X144657788Y-181208794D01*
X144743345Y-181170702D01*
X144801888Y-181144637D01*
X144872255Y-181135203D01*
X144936552Y-181165310D01*
X144972970Y-181220806D01*
X144989212Y-181270795D01*
X145084699Y-181436183D01*
X145089117Y-181441090D01*
X145089118Y-181441091D01*
X145208064Y-181573194D01*
X145212486Y-181578105D01*
X145251769Y-181606646D01*
X145343428Y-181673240D01*
X145366987Y-181690357D01*
X145373015Y-181693041D01*
X145373017Y-181693042D01*
X145528433Y-181762237D01*
X145541451Y-181768033D01*
X145634851Y-181787886D01*
X145721795Y-181806367D01*
X145721800Y-181806367D01*
X145728252Y-181807739D01*
X145919226Y-181807739D01*
X145925678Y-181806367D01*
X145925683Y-181806367D01*
X146012627Y-181787886D01*
X146106027Y-181768033D01*
X146259906Y-181699522D01*
X146330272Y-181690088D01*
X146385215Y-181712693D01*
X146458748Y-181766118D01*
X146464776Y-181768802D01*
X146464778Y-181768803D01*
X146627181Y-181841109D01*
X146633212Y-181843794D01*
X146726612Y-181863647D01*
X146813556Y-181882128D01*
X146813561Y-181882128D01*
X146820013Y-181883500D01*
X147010987Y-181883500D01*
X147017439Y-181882128D01*
X147017444Y-181882128D01*
X147104388Y-181863647D01*
X147197788Y-181843794D01*
X147203819Y-181841109D01*
X147366222Y-181768803D01*
X147366224Y-181768802D01*
X147372252Y-181766118D01*
X147526753Y-181653866D01*
X147591596Y-181581851D01*
X147650121Y-181516852D01*
X147650122Y-181516851D01*
X147654540Y-181511944D01*
X147657839Y-181506231D01*
X147657842Y-181506226D01*
X147747265Y-181351341D01*
X147798648Y-181302348D01*
X147868362Y-181288912D01*
X147934272Y-181315299D01*
X147975454Y-181373131D01*
X147981671Y-181427728D01*
X147965751Y-181576695D01*
X147966048Y-181581848D01*
X147966048Y-181581851D01*
X147972459Y-181693042D01*
X147978610Y-181799715D01*
X147979747Y-181804761D01*
X147979748Y-181804767D01*
X147988853Y-181845166D01*
X148027722Y-182017639D01*
X148111766Y-182224616D01*
X148228487Y-182415088D01*
X148231866Y-182418989D01*
X148234925Y-182423168D01*
X148233452Y-182424246D01*
X148259628Y-182481587D01*
X148249514Y-182551859D01*
X148203013Y-182605508D01*
X148134908Y-182625500D01*
X64157433Y-182625500D01*
X64089312Y-182605498D01*
X64042819Y-182551842D01*
X64032715Y-182481568D01*
X64055110Y-182425974D01*
X64062933Y-182415088D01*
X64136953Y-182312077D01*
X64146075Y-182293621D01*
X64233636Y-182116453D01*
X64233637Y-182116451D01*
X64235930Y-182111811D01*
X64300870Y-181898069D01*
X64330029Y-181676590D01*
X64330349Y-181663482D01*
X64331574Y-181613365D01*
X64331574Y-181613361D01*
X64331656Y-181610000D01*
X64313352Y-181387361D01*
X64258931Y-181170702D01*
X64169854Y-180965840D01*
X64112345Y-180876944D01*
X64051322Y-180782617D01*
X64051320Y-180782614D01*
X64048514Y-180778277D01*
X63898170Y-180613051D01*
X63894119Y-180609852D01*
X63894115Y-180609848D01*
X63726914Y-180477800D01*
X63726910Y-180477798D01*
X63722859Y-180474598D01*
X63685731Y-180454102D01*
X63617920Y-180416669D01*
X63527289Y-180366638D01*
X63522420Y-180364914D01*
X63522416Y-180364912D01*
X63321587Y-180293795D01*
X63321583Y-180293794D01*
X63316712Y-180292069D01*
X63311619Y-180291162D01*
X63311616Y-180291161D01*
X63101873Y-180253800D01*
X63101867Y-180253799D01*
X63096784Y-180252894D01*
X63022952Y-180251992D01*
X62878581Y-180250228D01*
X62878579Y-180250228D01*
X62873411Y-180250165D01*
X62652591Y-180283955D01*
X62440256Y-180353357D01*
X62409943Y-180369137D01*
X62335663Y-180407805D01*
X62242107Y-180456507D01*
X62237974Y-180459610D01*
X62237971Y-180459612D01*
X62067600Y-180587530D01*
X62063465Y-180590635D01*
X61909129Y-180752138D01*
X61783243Y-180936680D01*
X61765456Y-180975000D01*
X61708788Y-181097080D01*
X61661964Y-181150447D01*
X61593720Y-181170028D01*
X61525725Y-181149604D01*
X61479565Y-181095662D01*
X61468500Y-181044030D01*
X61468500Y-167893500D01*
X61488502Y-167825379D01*
X61542158Y-167778886D01*
X61594500Y-167767500D01*
X150622500Y-167767500D01*
X150690621Y-167787502D01*
G37*
%TD.AperFunction*%
%TA.AperFunction,Conductor*%
G36*
X150714657Y-172122772D02*
G01*
X150746482Y-172186237D01*
X150748500Y-172208697D01*
X150748500Y-175797079D01*
X150728498Y-175865200D01*
X150674842Y-175911693D01*
X150604568Y-175921797D01*
X150539988Y-175892303D01*
X150516708Y-175865519D01*
X150411322Y-175702617D01*
X150411320Y-175702614D01*
X150408514Y-175698277D01*
X150258170Y-175533051D01*
X150254119Y-175529852D01*
X150254115Y-175529848D01*
X150086914Y-175397800D01*
X150086910Y-175397798D01*
X150082859Y-175394598D01*
X150046548Y-175374553D01*
X149999707Y-175348696D01*
X149887289Y-175286638D01*
X149882420Y-175284914D01*
X149882416Y-175284912D01*
X149681587Y-175213795D01*
X149681583Y-175213794D01*
X149676712Y-175212069D01*
X149671619Y-175211162D01*
X149671616Y-175211161D01*
X149461873Y-175173800D01*
X149461867Y-175173799D01*
X149456784Y-175172894D01*
X149382952Y-175171992D01*
X149238581Y-175170228D01*
X149238579Y-175170228D01*
X149233411Y-175170165D01*
X149012591Y-175203955D01*
X148984046Y-175213285D01*
X148913082Y-175215436D01*
X148855806Y-175182615D01*
X147697905Y-174024714D01*
X147663879Y-173962402D01*
X147661000Y-173935619D01*
X147661000Y-173754500D01*
X147681002Y-173686379D01*
X147734658Y-173639886D01*
X147787000Y-173628500D01*
X147899987Y-173628500D01*
X147906439Y-173627128D01*
X147906444Y-173627128D01*
X148022612Y-173602435D01*
X148086788Y-173588794D01*
X148153186Y-173559232D01*
X148255222Y-173513803D01*
X148255224Y-173513802D01*
X148261252Y-173511118D01*
X148415753Y-173398866D01*
X148432527Y-173380237D01*
X148539121Y-173261852D01*
X148539122Y-173261851D01*
X148543540Y-173256944D01*
X148639027Y-173091556D01*
X148698042Y-172909928D01*
X148699491Y-172896149D01*
X148717899Y-172721001D01*
X148744912Y-172655345D01*
X148754114Y-172645077D01*
X149223786Y-172175405D01*
X149286098Y-172141379D01*
X149312881Y-172138500D01*
X150361900Y-172138500D01*
X150365146Y-172138163D01*
X150365150Y-172138163D01*
X150460808Y-172128238D01*
X150460812Y-172128237D01*
X150467666Y-172127526D01*
X150474202Y-172125345D01*
X150474204Y-172125345D01*
X150582624Y-172089173D01*
X150653573Y-172086589D01*
X150714657Y-172122772D01*
G37*
%TD.AperFunction*%
%TD*%
M02*
