%TF.GenerationSoftware,KiCad,Pcbnew,6.0.9*%
%TF.CreationDate,2023-02-18T01:22:43-08:00*%
%TF.ProjectId,effectpedal,65666665-6374-4706-9564-616c2e6b6963,rev?*%
%TF.SameCoordinates,Original*%
%TF.FileFunction,Legend,Top*%
%TF.FilePolarity,Positive*%
%FSLAX46Y46*%
G04 Gerber Fmt 4.6, Leading zero omitted, Abs format (unit mm)*
G04 Created by KiCad (PCBNEW 6.0.9) date 2023-02-18 01:22:43*
%MOMM*%
%LPD*%
G01*
G04 APERTURE LIST*
%ADD10C,0.150000*%
%ADD11C,0.254000*%
%ADD12C,0.120000*%
%ADD13C,0.250000*%
G04 APERTURE END LIST*
D10*
X106148500Y-167877000D02*
X105640500Y-167877000D01*
X105640500Y-167877000D02*
X106148500Y-167877000D01*
X106148500Y-167877000D02*
X105640500Y-167877000D01*
X65494833Y-170767285D02*
X65399595Y-170862523D01*
X65113880Y-170957761D01*
X64923404Y-170957761D01*
X64637690Y-170862523D01*
X64447214Y-170672047D01*
X64351976Y-170481571D01*
X64256738Y-170100619D01*
X64256738Y-169814904D01*
X64351976Y-169433952D01*
X64447214Y-169243476D01*
X64637690Y-169053000D01*
X64923404Y-168957761D01*
X65113880Y-168957761D01*
X65399595Y-169053000D01*
X65494833Y-169148238D01*
X67494833Y-170957761D02*
X66828166Y-170005380D01*
X66351976Y-170957761D02*
X66351976Y-168957761D01*
X67113880Y-168957761D01*
X67304357Y-169053000D01*
X67399595Y-169148238D01*
X67494833Y-169338714D01*
X67494833Y-169624428D01*
X67399595Y-169814904D01*
X67304357Y-169910142D01*
X67113880Y-170005380D01*
X66351976Y-170005380D01*
X68732928Y-168957761D02*
X69113880Y-168957761D01*
X69304357Y-169053000D01*
X69494833Y-169243476D01*
X69590071Y-169624428D01*
X69590071Y-170291095D01*
X69494833Y-170672047D01*
X69304357Y-170862523D01*
X69113880Y-170957761D01*
X68732928Y-170957761D01*
X68542452Y-170862523D01*
X68351976Y-170672047D01*
X68256738Y-170291095D01*
X68256738Y-169624428D01*
X68351976Y-169243476D01*
X68542452Y-169053000D01*
X68732928Y-168957761D01*
X70447214Y-170957761D02*
X70447214Y-168957761D01*
X71590071Y-170957761D01*
X71590071Y-168957761D01*
X73685309Y-170767285D02*
X73590071Y-170862523D01*
X73304357Y-170957761D01*
X73113880Y-170957761D01*
X72828166Y-170862523D01*
X72637690Y-170672047D01*
X72542452Y-170481571D01*
X72447214Y-170100619D01*
X72447214Y-169814904D01*
X72542452Y-169433952D01*
X72637690Y-169243476D01*
X72828166Y-169053000D01*
X73113880Y-168957761D01*
X73304357Y-168957761D01*
X73590071Y-169053000D01*
X73685309Y-169148238D01*
X74542452Y-170957761D02*
X74542452Y-168957761D01*
X74542452Y-169910142D02*
X75685309Y-169910142D01*
X75685309Y-170957761D02*
X75685309Y-168957761D01*
X79113880Y-170957761D02*
X78161500Y-170957761D01*
X78161500Y-168957761D01*
X79780547Y-169910142D02*
X80447214Y-169910142D01*
X80732928Y-170957761D02*
X79780547Y-170957761D01*
X79780547Y-168957761D01*
X80732928Y-168957761D01*
X81590071Y-170957761D02*
X81590071Y-168957761D01*
X82066261Y-168957761D01*
X82351976Y-169053000D01*
X82542452Y-169243476D01*
X82637690Y-169433952D01*
X82732928Y-169814904D01*
X82732928Y-170100619D01*
X82637690Y-170481571D01*
X82542452Y-170672047D01*
X82351976Y-170862523D01*
X82066261Y-170957761D01*
X81590071Y-170957761D01*
X85780547Y-169910142D02*
X86066261Y-170005380D01*
X86161500Y-170100619D01*
X86256738Y-170291095D01*
X86256738Y-170576809D01*
X86161500Y-170767285D01*
X86066261Y-170862523D01*
X85875785Y-170957761D01*
X85113880Y-170957761D01*
X85113880Y-168957761D01*
X85780547Y-168957761D01*
X85971023Y-169053000D01*
X86066261Y-169148238D01*
X86161500Y-169338714D01*
X86161500Y-169529190D01*
X86066261Y-169719666D01*
X85971023Y-169814904D01*
X85780547Y-169910142D01*
X85113880Y-169910142D01*
X87494833Y-168957761D02*
X87875785Y-168957761D01*
X88066261Y-169053000D01*
X88256738Y-169243476D01*
X88351976Y-169624428D01*
X88351976Y-170291095D01*
X88256738Y-170672047D01*
X88066261Y-170862523D01*
X87875785Y-170957761D01*
X87494833Y-170957761D01*
X87304357Y-170862523D01*
X87113880Y-170672047D01*
X87018642Y-170291095D01*
X87018642Y-169624428D01*
X87113880Y-169243476D01*
X87304357Y-169053000D01*
X87494833Y-168957761D01*
X89113880Y-170386333D02*
X90066261Y-170386333D01*
X88923404Y-170957761D02*
X89590071Y-168957761D01*
X90256738Y-170957761D01*
X92066261Y-170957761D02*
X91399595Y-170005380D01*
X90923404Y-170957761D02*
X90923404Y-168957761D01*
X91685309Y-168957761D01*
X91875785Y-169053000D01*
X91971023Y-169148238D01*
X92066261Y-169338714D01*
X92066261Y-169624428D01*
X91971023Y-169814904D01*
X91875785Y-169910142D01*
X91685309Y-170005380D01*
X90923404Y-170005380D01*
X92923404Y-170957761D02*
X92923404Y-168957761D01*
X93399595Y-168957761D01*
X93685309Y-169053000D01*
X93875785Y-169243476D01*
X93971023Y-169433952D01*
X94066261Y-169814904D01*
X94066261Y-170100619D01*
X93971023Y-170481571D01*
X93875785Y-170672047D01*
X93685309Y-170862523D01*
X93399595Y-170957761D01*
X92923404Y-170957761D01*
X96161500Y-168957761D02*
X96828166Y-170957761D01*
X97494833Y-168957761D01*
X99209119Y-170957761D02*
X98066261Y-170957761D01*
X98637690Y-170957761D02*
X98637690Y-168957761D01*
X98447214Y-169243476D01*
X98256738Y-169433952D01*
X98066261Y-169529190D01*
X100066261Y-170767285D02*
X100161500Y-170862523D01*
X100066261Y-170957761D01*
X99971023Y-170862523D01*
X100066261Y-170767285D01*
X100066261Y-170957761D01*
X102066261Y-170957761D02*
X100923404Y-170957761D01*
X101494833Y-170957761D02*
X101494833Y-168957761D01*
X101304357Y-169243476D01*
X101113880Y-169433952D01*
X100923404Y-169529190D01*
X109896833Y-171648380D02*
X109896833Y-170648380D01*
X110325404Y-171648380D02*
X110325404Y-171124571D01*
X110277785Y-171029333D01*
X110182547Y-170981714D01*
X110039690Y-170981714D01*
X109944452Y-171029333D01*
X109896833Y-171076952D01*
X110658738Y-170981714D02*
X111039690Y-170981714D01*
X110801595Y-170648380D02*
X110801595Y-171505523D01*
X110849214Y-171600761D01*
X110944452Y-171648380D01*
X111039690Y-171648380D01*
X111230166Y-170981714D02*
X111611119Y-170981714D01*
X111373023Y-170648380D02*
X111373023Y-171505523D01*
X111420642Y-171600761D01*
X111515880Y-171648380D01*
X111611119Y-171648380D01*
X111944452Y-170981714D02*
X111944452Y-171981714D01*
X111944452Y-171029333D02*
X112039690Y-170981714D01*
X112230166Y-170981714D01*
X112325404Y-171029333D01*
X112373023Y-171076952D01*
X112420642Y-171172190D01*
X112420642Y-171457904D01*
X112373023Y-171553142D01*
X112325404Y-171600761D01*
X112230166Y-171648380D01*
X112039690Y-171648380D01*
X111944452Y-171600761D01*
X112801595Y-171600761D02*
X112896833Y-171648380D01*
X113087309Y-171648380D01*
X113182547Y-171600761D01*
X113230166Y-171505523D01*
X113230166Y-171457904D01*
X113182547Y-171362666D01*
X113087309Y-171315047D01*
X112944452Y-171315047D01*
X112849214Y-171267428D01*
X112801595Y-171172190D01*
X112801595Y-171124571D01*
X112849214Y-171029333D01*
X112944452Y-170981714D01*
X113087309Y-170981714D01*
X113182547Y-171029333D01*
X113658738Y-171553142D02*
X113706357Y-171600761D01*
X113658738Y-171648380D01*
X113611119Y-171600761D01*
X113658738Y-171553142D01*
X113658738Y-171648380D01*
X113658738Y-171029333D02*
X113706357Y-171076952D01*
X113658738Y-171124571D01*
X113611119Y-171076952D01*
X113658738Y-171029333D01*
X113658738Y-171124571D01*
X114849214Y-170600761D02*
X113992071Y-171886476D01*
X115896833Y-170600761D02*
X115039690Y-171886476D01*
X116658738Y-170981714D02*
X116658738Y-171791238D01*
X116611119Y-171886476D01*
X116563500Y-171934095D01*
X116468261Y-171981714D01*
X116325404Y-171981714D01*
X116230166Y-171934095D01*
X116658738Y-171600761D02*
X116563500Y-171648380D01*
X116373023Y-171648380D01*
X116277785Y-171600761D01*
X116230166Y-171553142D01*
X116182547Y-171457904D01*
X116182547Y-171172190D01*
X116230166Y-171076952D01*
X116277785Y-171029333D01*
X116373023Y-170981714D01*
X116563500Y-170981714D01*
X116658738Y-171029333D01*
X117134928Y-171648380D02*
X117134928Y-170981714D01*
X117134928Y-170648380D02*
X117087309Y-170696000D01*
X117134928Y-170743619D01*
X117182547Y-170696000D01*
X117134928Y-170648380D01*
X117134928Y-170743619D01*
X117468261Y-170981714D02*
X117849214Y-170981714D01*
X117611119Y-170648380D02*
X117611119Y-171505523D01*
X117658738Y-171600761D01*
X117753976Y-171648380D01*
X117849214Y-171648380D01*
X118182547Y-171648380D02*
X118182547Y-170648380D01*
X118611119Y-171648380D02*
X118611119Y-171124571D01*
X118563500Y-171029333D01*
X118468261Y-170981714D01*
X118325404Y-170981714D01*
X118230166Y-171029333D01*
X118182547Y-171076952D01*
X119515880Y-170981714D02*
X119515880Y-171648380D01*
X119087309Y-170981714D02*
X119087309Y-171505523D01*
X119134928Y-171600761D01*
X119230166Y-171648380D01*
X119373023Y-171648380D01*
X119468261Y-171600761D01*
X119515880Y-171553142D01*
X119992071Y-171648380D02*
X119992071Y-170648380D01*
X119992071Y-171029333D02*
X120087309Y-170981714D01*
X120277785Y-170981714D01*
X120373023Y-171029333D01*
X120420642Y-171076952D01*
X120468261Y-171172190D01*
X120468261Y-171457904D01*
X120420642Y-171553142D01*
X120373023Y-171600761D01*
X120277785Y-171648380D01*
X120087309Y-171648380D01*
X119992071Y-171600761D01*
X120896833Y-171553142D02*
X120944452Y-171600761D01*
X120896833Y-171648380D01*
X120849214Y-171600761D01*
X120896833Y-171553142D01*
X120896833Y-171648380D01*
X121801595Y-171600761D02*
X121706357Y-171648380D01*
X121515880Y-171648380D01*
X121420642Y-171600761D01*
X121373023Y-171553142D01*
X121325404Y-171457904D01*
X121325404Y-171172190D01*
X121373023Y-171076952D01*
X121420642Y-171029333D01*
X121515880Y-170981714D01*
X121706357Y-170981714D01*
X121801595Y-171029333D01*
X122373023Y-171648380D02*
X122277785Y-171600761D01*
X122230166Y-171553142D01*
X122182547Y-171457904D01*
X122182547Y-171172190D01*
X122230166Y-171076952D01*
X122277785Y-171029333D01*
X122373023Y-170981714D01*
X122515880Y-170981714D01*
X122611119Y-171029333D01*
X122658738Y-171076952D01*
X122706357Y-171172190D01*
X122706357Y-171457904D01*
X122658738Y-171553142D01*
X122611119Y-171600761D01*
X122515880Y-171648380D01*
X122373023Y-171648380D01*
X123134928Y-171648380D02*
X123134928Y-170981714D01*
X123134928Y-171076952D02*
X123182547Y-171029333D01*
X123277785Y-170981714D01*
X123420642Y-170981714D01*
X123515880Y-171029333D01*
X123563500Y-171124571D01*
X123563500Y-171648380D01*
X123563500Y-171124571D02*
X123611119Y-171029333D01*
X123706357Y-170981714D01*
X123849214Y-170981714D01*
X123944452Y-171029333D01*
X123992071Y-171124571D01*
X123992071Y-171648380D01*
X125182547Y-170600761D02*
X124325404Y-171886476D01*
X125658738Y-171648380D02*
X125563500Y-171600761D01*
X125515880Y-171505523D01*
X125515880Y-170648380D01*
X126039690Y-171648380D02*
X126039690Y-170981714D01*
X126039690Y-170648380D02*
X125992071Y-170696000D01*
X126039690Y-170743619D01*
X126087309Y-170696000D01*
X126039690Y-170648380D01*
X126039690Y-170743619D01*
X126944452Y-171648380D02*
X126944452Y-171124571D01*
X126896833Y-171029333D01*
X126801595Y-170981714D01*
X126611119Y-170981714D01*
X126515880Y-171029333D01*
X126944452Y-171600761D02*
X126849214Y-171648380D01*
X126611119Y-171648380D01*
X126515880Y-171600761D01*
X126468261Y-171505523D01*
X126468261Y-171410285D01*
X126515880Y-171315047D01*
X126611119Y-171267428D01*
X126849214Y-171267428D01*
X126944452Y-171219809D01*
X127420642Y-171648380D02*
X127420642Y-170648380D01*
X127515880Y-171267428D02*
X127801595Y-171648380D01*
X127801595Y-170981714D02*
X127420642Y-171362666D01*
X128230166Y-171648380D02*
X128230166Y-170648380D01*
X128658738Y-171648380D02*
X128658738Y-171124571D01*
X128611119Y-171029333D01*
X128515880Y-170981714D01*
X128373023Y-170981714D01*
X128277785Y-171029333D01*
X128230166Y-171076952D01*
X129277785Y-171648380D02*
X129182547Y-171600761D01*
X129134928Y-171553142D01*
X129087309Y-171457904D01*
X129087309Y-171172190D01*
X129134928Y-171076952D01*
X129182547Y-171029333D01*
X129277785Y-170981714D01*
X129420642Y-170981714D01*
X129515880Y-171029333D01*
X129563500Y-171076952D01*
X129611119Y-171172190D01*
X129611119Y-171457904D01*
X129563500Y-171553142D01*
X129515880Y-171600761D01*
X129420642Y-171648380D01*
X129277785Y-171648380D01*
X129944452Y-170981714D02*
X130182547Y-171648380D01*
X130420642Y-170981714D01*
X130801595Y-171648380D02*
X130801595Y-170981714D01*
X130801595Y-170648380D02*
X130753976Y-170696000D01*
X130801595Y-170743619D01*
X130849214Y-170696000D01*
X130801595Y-170648380D01*
X130801595Y-170743619D01*
X131134928Y-170981714D02*
X131515880Y-170981714D01*
X131277785Y-170648380D02*
X131277785Y-171505523D01*
X131325404Y-171600761D01*
X131420642Y-171648380D01*
X131515880Y-171648380D01*
X132277785Y-171600761D02*
X132182547Y-171648380D01*
X131992071Y-171648380D01*
X131896833Y-171600761D01*
X131849214Y-171553142D01*
X131801595Y-171457904D01*
X131801595Y-171172190D01*
X131849214Y-171076952D01*
X131896833Y-171029333D01*
X131992071Y-170981714D01*
X132182547Y-170981714D01*
X132277785Y-171029333D01*
X132706357Y-171648380D02*
X132706357Y-170648380D01*
X133134928Y-171648380D02*
X133134928Y-171124571D01*
X133087309Y-171029333D01*
X132992071Y-170981714D01*
X132849214Y-170981714D01*
X132753976Y-171029333D01*
X132706357Y-171076952D01*
X134325404Y-170600761D02*
X133468261Y-171886476D01*
X135087309Y-171600761D02*
X134992071Y-171648380D01*
X134801595Y-171648380D01*
X134706357Y-171600761D01*
X134658738Y-171553142D01*
X134611119Y-171457904D01*
X134611119Y-171172190D01*
X134658738Y-171076952D01*
X134706357Y-171029333D01*
X134801595Y-170981714D01*
X134992071Y-170981714D01*
X135087309Y-171029333D01*
X135515880Y-171648380D02*
X135515880Y-170981714D01*
X135515880Y-171172190D02*
X135563500Y-171076952D01*
X135611119Y-171029333D01*
X135706357Y-170981714D01*
X135801595Y-170981714D01*
X136277785Y-171648380D02*
X136182547Y-171600761D01*
X136134928Y-171553142D01*
X136087309Y-171457904D01*
X136087309Y-171172190D01*
X136134928Y-171076952D01*
X136182547Y-171029333D01*
X136277785Y-170981714D01*
X136420642Y-170981714D01*
X136515880Y-171029333D01*
X136563500Y-171076952D01*
X136611119Y-171172190D01*
X136611119Y-171457904D01*
X136563500Y-171553142D01*
X136515880Y-171600761D01*
X136420642Y-171648380D01*
X136277785Y-171648380D01*
X137039690Y-170981714D02*
X137039690Y-171648380D01*
X137039690Y-171076952D02*
X137087309Y-171029333D01*
X137182547Y-170981714D01*
X137325404Y-170981714D01*
X137420642Y-171029333D01*
X137468261Y-171124571D01*
X137468261Y-171648380D01*
X138373023Y-171600761D02*
X138277785Y-171648380D01*
X138087309Y-171648380D01*
X137992071Y-171600761D01*
X137944452Y-171553142D01*
X137896833Y-171457904D01*
X137896833Y-171172190D01*
X137944452Y-171076952D01*
X137992071Y-171029333D01*
X138087309Y-170981714D01*
X138277785Y-170981714D01*
X138373023Y-171029333D01*
X138801595Y-171648380D02*
X138801595Y-170648380D01*
X139230166Y-171648380D02*
X139230166Y-171124571D01*
X139182547Y-171029333D01*
X139087309Y-170981714D01*
X138944452Y-170981714D01*
X138849214Y-171029333D01*
X138801595Y-171076952D01*
X109983404Y-169457666D02*
X110459595Y-169457666D01*
X109888166Y-169743380D02*
X110221500Y-168743380D01*
X110554833Y-169743380D01*
X110888166Y-169076714D02*
X110888166Y-169743380D01*
X110888166Y-169171952D02*
X110935785Y-169124333D01*
X111031023Y-169076714D01*
X111173880Y-169076714D01*
X111269119Y-169124333D01*
X111316738Y-169219571D01*
X111316738Y-169743380D01*
X111650071Y-169076714D02*
X112031023Y-169076714D01*
X111792928Y-168743380D02*
X111792928Y-169600523D01*
X111840547Y-169695761D01*
X111935785Y-169743380D01*
X112031023Y-169743380D01*
X112507214Y-169743380D02*
X112411976Y-169695761D01*
X112364357Y-169648142D01*
X112316738Y-169552904D01*
X112316738Y-169267190D01*
X112364357Y-169171952D01*
X112411976Y-169124333D01*
X112507214Y-169076714D01*
X112650071Y-169076714D01*
X112745309Y-169124333D01*
X112792928Y-169171952D01*
X112840547Y-169267190D01*
X112840547Y-169552904D01*
X112792928Y-169648142D01*
X112745309Y-169695761D01*
X112650071Y-169743380D01*
X112507214Y-169743380D01*
X113269119Y-169076714D02*
X113269119Y-169743380D01*
X113269119Y-169171952D02*
X113316738Y-169124333D01*
X113411976Y-169076714D01*
X113554833Y-169076714D01*
X113650071Y-169124333D01*
X113697690Y-169219571D01*
X113697690Y-169743380D01*
X115411976Y-169743380D02*
X114935785Y-169743380D01*
X114935785Y-168743380D01*
X115745309Y-169743380D02*
X115745309Y-169076714D01*
X115745309Y-168743380D02*
X115697690Y-168791000D01*
X115745309Y-168838619D01*
X115792928Y-168791000D01*
X115745309Y-168743380D01*
X115745309Y-168838619D01*
X116650071Y-169743380D02*
X116650071Y-169219571D01*
X116602452Y-169124333D01*
X116507214Y-169076714D01*
X116316738Y-169076714D01*
X116221500Y-169124333D01*
X116650071Y-169695761D02*
X116554833Y-169743380D01*
X116316738Y-169743380D01*
X116221500Y-169695761D01*
X116173880Y-169600523D01*
X116173880Y-169505285D01*
X116221500Y-169410047D01*
X116316738Y-169362428D01*
X116554833Y-169362428D01*
X116650071Y-169314809D01*
X117126261Y-169743380D02*
X117126261Y-168743380D01*
X117221500Y-169362428D02*
X117507214Y-169743380D01*
X117507214Y-169076714D02*
X117126261Y-169457666D01*
X117935785Y-169743380D02*
X117935785Y-168743380D01*
X118364357Y-169743380D02*
X118364357Y-169219571D01*
X118316738Y-169124333D01*
X118221500Y-169076714D01*
X118078642Y-169076714D01*
X117983404Y-169124333D01*
X117935785Y-169171952D01*
X118983404Y-169743380D02*
X118888166Y-169695761D01*
X118840547Y-169648142D01*
X118792928Y-169552904D01*
X118792928Y-169267190D01*
X118840547Y-169171952D01*
X118888166Y-169124333D01*
X118983404Y-169076714D01*
X119126261Y-169076714D01*
X119221500Y-169124333D01*
X119269119Y-169171952D01*
X119316738Y-169267190D01*
X119316738Y-169552904D01*
X119269119Y-169648142D01*
X119221500Y-169695761D01*
X119126261Y-169743380D01*
X118983404Y-169743380D01*
X119650071Y-169076714D02*
X119888166Y-169743380D01*
X120126261Y-169076714D01*
X120507214Y-169743380D02*
X120507214Y-169076714D01*
X120507214Y-168743380D02*
X120459595Y-168791000D01*
X120507214Y-168838619D01*
X120554833Y-168791000D01*
X120507214Y-168743380D01*
X120507214Y-168838619D01*
X120840547Y-169076714D02*
X121221500Y-169076714D01*
X120983404Y-168743380D02*
X120983404Y-169600523D01*
X121031023Y-169695761D01*
X121126261Y-169743380D01*
X121221500Y-169743380D01*
X121983404Y-169695761D02*
X121888166Y-169743380D01*
X121697690Y-169743380D01*
X121602452Y-169695761D01*
X121554833Y-169648142D01*
X121507214Y-169552904D01*
X121507214Y-169267190D01*
X121554833Y-169171952D01*
X121602452Y-169124333D01*
X121697690Y-169076714D01*
X121888166Y-169076714D01*
X121983404Y-169124333D01*
X122411976Y-169743380D02*
X122411976Y-168743380D01*
X122840547Y-169743380D02*
X122840547Y-169219571D01*
X122792928Y-169124333D01*
X122697690Y-169076714D01*
X122554833Y-169076714D01*
X122459595Y-169124333D01*
X122411976Y-169171952D01*
X124031023Y-168838619D02*
X124078642Y-168791000D01*
X124173880Y-168743380D01*
X124411976Y-168743380D01*
X124507214Y-168791000D01*
X124554833Y-168838619D01*
X124602452Y-168933857D01*
X124602452Y-169029095D01*
X124554833Y-169171952D01*
X123983404Y-169743380D01*
X124602452Y-169743380D01*
X125221500Y-168743380D02*
X125316738Y-168743380D01*
X125411976Y-168791000D01*
X125459595Y-168838619D01*
X125507214Y-168933857D01*
X125554833Y-169124333D01*
X125554833Y-169362428D01*
X125507214Y-169552904D01*
X125459595Y-169648142D01*
X125411976Y-169695761D01*
X125316738Y-169743380D01*
X125221500Y-169743380D01*
X125126261Y-169695761D01*
X125078642Y-169648142D01*
X125031023Y-169552904D01*
X124983404Y-169362428D01*
X124983404Y-169124333D01*
X125031023Y-168933857D01*
X125078642Y-168838619D01*
X125126261Y-168791000D01*
X125221500Y-168743380D01*
X125935785Y-168838619D02*
X125983404Y-168791000D01*
X126078642Y-168743380D01*
X126316738Y-168743380D01*
X126411976Y-168791000D01*
X126459595Y-168838619D01*
X126507214Y-168933857D01*
X126507214Y-169029095D01*
X126459595Y-169171952D01*
X125888166Y-169743380D01*
X126507214Y-169743380D01*
X126840547Y-168743380D02*
X127459595Y-168743380D01*
X127126261Y-169124333D01*
X127269119Y-169124333D01*
X127364357Y-169171952D01*
X127411976Y-169219571D01*
X127459595Y-169314809D01*
X127459595Y-169552904D01*
X127411976Y-169648142D01*
X127364357Y-169695761D01*
X127269119Y-169743380D01*
X126983404Y-169743380D01*
X126888166Y-169695761D01*
X126840547Y-169648142D01*
D11*
%TO.C,IC5*%
X143516738Y-173675523D02*
X143516738Y-172405523D01*
X144847214Y-173554571D02*
X144786738Y-173615047D01*
X144605309Y-173675523D01*
X144484357Y-173675523D01*
X144302928Y-173615047D01*
X144181976Y-173494095D01*
X144121500Y-173373142D01*
X144061023Y-173131238D01*
X144061023Y-172949809D01*
X144121500Y-172707904D01*
X144181976Y-172586952D01*
X144302928Y-172466000D01*
X144484357Y-172405523D01*
X144605309Y-172405523D01*
X144786738Y-172466000D01*
X144847214Y-172526476D01*
X145996261Y-172405523D02*
X145391500Y-172405523D01*
X145331023Y-173010285D01*
X145391500Y-172949809D01*
X145512452Y-172889333D01*
X145814833Y-172889333D01*
X145935785Y-172949809D01*
X145996261Y-173010285D01*
X146056738Y-173131238D01*
X146056738Y-173433619D01*
X145996261Y-173554571D01*
X145935785Y-173615047D01*
X145814833Y-173675523D01*
X145512452Y-173675523D01*
X145391500Y-173615047D01*
X145331023Y-173554571D01*
D12*
%TO.C,D28*%
X91853500Y-173117000D02*
X91853500Y-175802000D01*
X91853500Y-175802000D02*
X93773500Y-175802000D01*
X93773500Y-175802000D02*
X93773500Y-173117000D01*
%TO.C,D35*%
X107855500Y-173117000D02*
X107855500Y-175802000D01*
X107855500Y-175802000D02*
X109775500Y-175802000D01*
X109775500Y-175802000D02*
X109775500Y-173117000D01*
%TO.C,D78*%
X133001500Y-178705000D02*
X133001500Y-181390000D01*
X134921500Y-181390000D02*
X134921500Y-178705000D01*
X133001500Y-181390000D02*
X134921500Y-181390000D01*
%TO.C,D32*%
X100997500Y-175802000D02*
X102917500Y-175802000D01*
X102917500Y-175802000D02*
X102917500Y-173117000D01*
X100997500Y-173117000D02*
X100997500Y-175802000D01*
%TO.C,D51*%
X71279500Y-181390000D02*
X73199500Y-181390000D01*
X71279500Y-178705000D02*
X71279500Y-181390000D01*
X73199500Y-181390000D02*
X73199500Y-178705000D01*
%TO.C,D26*%
X87281500Y-173117000D02*
X87281500Y-175802000D01*
X87281500Y-175802000D02*
X89201500Y-175802000D01*
X89201500Y-175802000D02*
X89201500Y-173117000D01*
%TO.C,D20*%
X75485500Y-175802000D02*
X75485500Y-173117000D01*
X73565500Y-175802000D02*
X75485500Y-175802000D01*
X73565500Y-173117000D02*
X73565500Y-175802000D01*
%TO.C,D59*%
X91487500Y-181390000D02*
X91487500Y-178705000D01*
X89567500Y-181390000D02*
X91487500Y-181390000D01*
X89567500Y-178705000D02*
X89567500Y-181390000D01*
%TO.C,D48*%
X137573500Y-175802000D02*
X139493500Y-175802000D01*
X137573500Y-173117000D02*
X137573500Y-175802000D01*
X139493500Y-175802000D02*
X139493500Y-173117000D01*
%TO.C,D74*%
X123857500Y-181390000D02*
X125777500Y-181390000D01*
X125777500Y-181390000D02*
X125777500Y-178705000D01*
X123857500Y-178705000D02*
X123857500Y-181390000D01*
%TO.C,D57*%
X84995500Y-181390000D02*
X86915500Y-181390000D01*
X86915500Y-181390000D02*
X86915500Y-178705000D01*
X84995500Y-178705000D02*
X84995500Y-181390000D01*
%TO.C,D40*%
X119285500Y-173117000D02*
X119285500Y-175802000D01*
X119285500Y-175802000D02*
X121205500Y-175802000D01*
X121205500Y-175802000D02*
X121205500Y-173117000D01*
%TO.C,D61*%
X94139500Y-181390000D02*
X96059500Y-181390000D01*
X94139500Y-178705000D02*
X94139500Y-181390000D01*
X96059500Y-181390000D02*
X96059500Y-178705000D01*
%TO.C,D67*%
X107855500Y-178705000D02*
X107855500Y-181390000D01*
X107855500Y-181390000D02*
X109775500Y-181390000D01*
X109775500Y-181390000D02*
X109775500Y-178705000D01*
%TO.C,D77*%
X130715500Y-178705000D02*
X130715500Y-181390000D01*
X130715500Y-181390000D02*
X132635500Y-181390000D01*
X132635500Y-181390000D02*
X132635500Y-178705000D01*
%TO.C,D63*%
X100631500Y-181390000D02*
X100631500Y-178705000D01*
X98711500Y-181390000D02*
X100631500Y-181390000D01*
X98711500Y-178705000D02*
X98711500Y-181390000D01*
%TO.C,D72*%
X121205500Y-181390000D02*
X121205500Y-178705000D01*
X119285500Y-181390000D02*
X121205500Y-181390000D01*
X119285500Y-178705000D02*
X119285500Y-181390000D01*
%TO.C,D25*%
X84995500Y-175802000D02*
X86915500Y-175802000D01*
X86915500Y-175802000D02*
X86915500Y-173117000D01*
X84995500Y-173117000D02*
X84995500Y-175802000D01*
%TO.C,D55*%
X82343500Y-181390000D02*
X82343500Y-178705000D01*
X80423500Y-181390000D02*
X82343500Y-181390000D01*
X80423500Y-178705000D02*
X80423500Y-181390000D01*
%TO.C,D52*%
X75485500Y-181390000D02*
X75485500Y-178705000D01*
X73565500Y-178705000D02*
X73565500Y-181390000D01*
X73565500Y-181390000D02*
X75485500Y-181390000D01*
%TO.C,D39*%
X116999500Y-175802000D02*
X118919500Y-175802000D01*
X118919500Y-175802000D02*
X118919500Y-173117000D01*
X116999500Y-173117000D02*
X116999500Y-175802000D01*
%TO.C,D75*%
X128063500Y-181390000D02*
X128063500Y-178705000D01*
X126143500Y-181390000D02*
X128063500Y-181390000D01*
X126143500Y-178705000D02*
X126143500Y-181390000D01*
%TO.C,D58*%
X87281500Y-178705000D02*
X87281500Y-181390000D01*
X89201500Y-181390000D02*
X89201500Y-178705000D01*
X87281500Y-181390000D02*
X89201500Y-181390000D01*
%TO.C,D46*%
X133001500Y-173117000D02*
X133001500Y-175802000D01*
X133001500Y-175802000D02*
X134921500Y-175802000D01*
X134921500Y-175802000D02*
X134921500Y-173117000D01*
%TO.C,D21*%
X75851500Y-173117000D02*
X75851500Y-175802000D01*
X75851500Y-175802000D02*
X77771500Y-175802000D01*
X77771500Y-175802000D02*
X77771500Y-173117000D01*
%TO.C,D42*%
X123857500Y-173117000D02*
X123857500Y-175802000D01*
X123857500Y-175802000D02*
X125777500Y-175802000D01*
X125777500Y-175802000D02*
X125777500Y-173117000D01*
%TO.C,D31*%
X100631500Y-175802000D02*
X100631500Y-173117000D01*
X98711500Y-175802000D02*
X100631500Y-175802000D01*
X98711500Y-173117000D02*
X98711500Y-175802000D01*
%TO.C,D34*%
X105569500Y-173117000D02*
X105569500Y-175802000D01*
X107489500Y-175802000D02*
X107489500Y-173117000D01*
X105569500Y-175802000D02*
X107489500Y-175802000D01*
%TO.C,D23*%
X82343500Y-175802000D02*
X82343500Y-173117000D01*
X80423500Y-173117000D02*
X80423500Y-175802000D01*
X80423500Y-175802000D02*
X82343500Y-175802000D01*
%TO.C,D45*%
X130715500Y-175802000D02*
X132635500Y-175802000D01*
X130715500Y-173117000D02*
X130715500Y-175802000D01*
X132635500Y-175802000D02*
X132635500Y-173117000D01*
%TO.C,D65*%
X103283500Y-181390000D02*
X105203500Y-181390000D01*
X105203500Y-181390000D02*
X105203500Y-178705000D01*
X103283500Y-178705000D02*
X103283500Y-181390000D01*
%TO.C,D27*%
X89567500Y-175802000D02*
X91487500Y-175802000D01*
X91487500Y-175802000D02*
X91487500Y-173117000D01*
X89567500Y-173117000D02*
X89567500Y-175802000D01*
%TO.C,D41*%
X121571500Y-173117000D02*
X121571500Y-175802000D01*
X123491500Y-175802000D02*
X123491500Y-173117000D01*
X121571500Y-175802000D02*
X123491500Y-175802000D01*
%TO.C,D80*%
X137573500Y-178705000D02*
X137573500Y-181390000D01*
X139493500Y-181390000D02*
X139493500Y-178705000D01*
X137573500Y-181390000D02*
X139493500Y-181390000D01*
%TO.C,D64*%
X102917500Y-181390000D02*
X102917500Y-178705000D01*
X100997500Y-178705000D02*
X100997500Y-181390000D01*
X100997500Y-181390000D02*
X102917500Y-181390000D01*
%TO.C,D73*%
X121571500Y-181390000D02*
X123491500Y-181390000D01*
X123491500Y-181390000D02*
X123491500Y-178705000D01*
X121571500Y-178705000D02*
X121571500Y-181390000D01*
%TO.C,D71*%
X118919500Y-181390000D02*
X118919500Y-178705000D01*
X116999500Y-178705000D02*
X116999500Y-181390000D01*
X116999500Y-181390000D02*
X118919500Y-181390000D01*
%TO.C,D56*%
X84629500Y-181390000D02*
X84629500Y-178705000D01*
X82709500Y-178705000D02*
X82709500Y-181390000D01*
X82709500Y-181390000D02*
X84629500Y-181390000D01*
%TO.C,D54*%
X78137500Y-181390000D02*
X80057500Y-181390000D01*
X78137500Y-178705000D02*
X78137500Y-181390000D01*
X80057500Y-181390000D02*
X80057500Y-178705000D01*
%TO.C,D38*%
X116633500Y-175802000D02*
X116633500Y-173117000D01*
X114713500Y-175802000D02*
X116633500Y-175802000D01*
X114713500Y-173117000D02*
X114713500Y-175802000D01*
%TO.C,D17*%
X66707500Y-175802000D02*
X68627500Y-175802000D01*
X66707500Y-173117000D02*
X66707500Y-175802000D01*
X68627500Y-175802000D02*
X68627500Y-173117000D01*
%TO.C,D19*%
X73199500Y-175802000D02*
X73199500Y-173117000D01*
X71279500Y-175802000D02*
X73199500Y-175802000D01*
X71279500Y-173117000D02*
X71279500Y-175802000D01*
%TO.C,D43*%
X126143500Y-175802000D02*
X128063500Y-175802000D01*
X126143500Y-173117000D02*
X126143500Y-175802000D01*
X128063500Y-175802000D02*
X128063500Y-173117000D01*
%TO.C,D62*%
X96425500Y-178705000D02*
X96425500Y-181390000D01*
X98345500Y-181390000D02*
X98345500Y-178705000D01*
X96425500Y-181390000D02*
X98345500Y-181390000D01*
%TO.C,D30*%
X98345500Y-175802000D02*
X98345500Y-173117000D01*
X96425500Y-173117000D02*
X96425500Y-175802000D01*
X96425500Y-175802000D02*
X98345500Y-175802000D01*
D13*
%TO.C,IC5*%
X147154500Y-178657000D02*
G75*
G03*
X147154500Y-178657000I-125000J0D01*
G01*
D12*
%TO.C,D29*%
X94139500Y-175802000D02*
X96059500Y-175802000D01*
X96059500Y-175802000D02*
X96059500Y-173117000D01*
X94139500Y-173117000D02*
X94139500Y-175802000D01*
%TO.C,D70*%
X116633500Y-181390000D02*
X116633500Y-178705000D01*
X114713500Y-181390000D02*
X116633500Y-181390000D01*
X114713500Y-178705000D02*
X114713500Y-181390000D01*
%TO.C,D49*%
X66707500Y-178705000D02*
X66707500Y-181390000D01*
X68627500Y-181390000D02*
X68627500Y-178705000D01*
X66707500Y-181390000D02*
X68627500Y-181390000D01*
%TO.C,D36*%
X112061500Y-175802000D02*
X112061500Y-173117000D01*
X110141500Y-175802000D02*
X112061500Y-175802000D01*
X110141500Y-173117000D02*
X110141500Y-175802000D01*
%TO.C,D33*%
X103283500Y-173117000D02*
X103283500Y-175802000D01*
X105203500Y-175802000D02*
X105203500Y-173117000D01*
X103283500Y-175802000D02*
X105203500Y-175802000D01*
%TO.C,D68*%
X112061500Y-181390000D02*
X112061500Y-178705000D01*
X110141500Y-181390000D02*
X112061500Y-181390000D01*
X110141500Y-178705000D02*
X110141500Y-181390000D01*
%TO.C,D37*%
X112427500Y-173117000D02*
X112427500Y-175802000D01*
X112427500Y-175802000D02*
X114347500Y-175802000D01*
X114347500Y-175802000D02*
X114347500Y-173117000D01*
%TO.C,D76*%
X128429500Y-181390000D02*
X130349500Y-181390000D01*
X128429500Y-178705000D02*
X128429500Y-181390000D01*
X130349500Y-181390000D02*
X130349500Y-178705000D01*
%TO.C,D47*%
X135287500Y-175802000D02*
X137207500Y-175802000D01*
X135287500Y-173117000D02*
X135287500Y-175802000D01*
X137207500Y-175802000D02*
X137207500Y-173117000D01*
%TO.C,D18*%
X70913500Y-175802000D02*
X70913500Y-173117000D01*
X68993500Y-175802000D02*
X70913500Y-175802000D01*
X68993500Y-173117000D02*
X68993500Y-175802000D01*
%TO.C,D79*%
X135287500Y-178705000D02*
X135287500Y-181390000D01*
X135287500Y-181390000D02*
X137207500Y-181390000D01*
X137207500Y-181390000D02*
X137207500Y-178705000D01*
%TO.C,D22*%
X80057500Y-175802000D02*
X80057500Y-173117000D01*
X78137500Y-173117000D02*
X78137500Y-175802000D01*
X78137500Y-175802000D02*
X80057500Y-175802000D01*
%TO.C,D69*%
X112427500Y-181390000D02*
X114347500Y-181390000D01*
X112427500Y-178705000D02*
X112427500Y-181390000D01*
X114347500Y-181390000D02*
X114347500Y-178705000D01*
%TO.C,D60*%
X91853500Y-178705000D02*
X91853500Y-181390000D01*
X91853500Y-181390000D02*
X93773500Y-181390000D01*
X93773500Y-181390000D02*
X93773500Y-178705000D01*
%TO.C,D66*%
X105569500Y-181390000D02*
X107489500Y-181390000D01*
X105569500Y-178705000D02*
X105569500Y-181390000D01*
X107489500Y-181390000D02*
X107489500Y-178705000D01*
%TO.C,D44*%
X128429500Y-173117000D02*
X128429500Y-175802000D01*
X130349500Y-175802000D02*
X130349500Y-173117000D01*
X128429500Y-175802000D02*
X130349500Y-175802000D01*
%TO.C,D24*%
X84629500Y-175802000D02*
X84629500Y-173117000D01*
X82709500Y-175802000D02*
X84629500Y-175802000D01*
X82709500Y-173117000D02*
X82709500Y-175802000D01*
%TO.C,D50*%
X68993500Y-178705000D02*
X68993500Y-181390000D01*
X70913500Y-181390000D02*
X70913500Y-178705000D01*
X68993500Y-181390000D02*
X70913500Y-181390000D01*
%TO.C,D53*%
X75851500Y-178705000D02*
X75851500Y-181390000D01*
X77771500Y-181390000D02*
X77771500Y-178705000D01*
X75851500Y-181390000D02*
X77771500Y-181390000D01*
%TD*%
M02*
