M48
; DRILL file {KiCad 6.0.9} date Sat 18 Feb 2023 01:22:38 AM PST
; FORMAT={-:-/ absolute / inch / decimal}
; #@! TF.CreationDate,2023-02-18T01:22:38-08:00
; #@! TF.GenerationSoftware,Kicad,Pcbnew,6.0.9
; #@! TF.FileFunction,Plated,1,2,PTH
FMAT,2
INCH
; #@! TA.AperFunction,Plated,PTH,ViaDrill
T1C0.0157
; #@! TA.AperFunction,Plated,PTH,ComponentDrill
T2C0.0394
%
G90
G05
T1
X2.6641Y-6.775
X2.6691Y-6.995
X2.7541Y-6.7571
X2.7591Y-6.995
X2.8441Y-6.7405
X2.8491Y-6.995
X2.9341Y-6.724
X2.9341Y-6.995
X3.0241Y-6.7075
X3.0241Y-6.995
X3.1141Y-6.6909
X3.1141Y-6.9953
X3.2041Y-6.6744
X3.2041Y-6.995
X3.2934Y-6.6579
X3.2941Y-6.995
X3.3841Y-6.77
X3.3841Y-6.9953
X3.4741Y-6.7571
X3.4744Y-6.9953
X3.5641Y-6.7405
X3.5644Y-6.9953
X3.6541Y-6.724
X3.6553Y-6.9953
X3.7441Y-6.7075
X3.7441Y-6.995
X3.8341Y-6.69
X3.8341Y-6.995
X3.9241Y-6.6744
X3.9291Y-6.9953
X4.013Y-6.6579
X4.0141Y-6.995
X4.1041Y-6.775
X4.1041Y-6.995
X4.1941Y-6.7571
X4.1991Y-6.995
X4.2841Y-6.7405
X4.2841Y-6.9953
X4.3741Y-6.724
X4.3791Y-6.9953
X4.4641Y-6.7075
X4.4641Y-6.995
X4.5541Y-6.6909
X4.5553Y-6.9953
X4.6441Y-6.6744
X4.6494Y-6.9953
X4.7341Y-6.6579
X4.7341Y-6.9953
X4.8241Y-6.775
X4.8268Y-6.9932
X4.9141Y-6.7571
X4.9141Y-6.9932
X5.0041Y-6.7405
X5.0059Y-6.9932
X5.0941Y-6.724
X5.0959Y-6.9932
X5.1841Y-6.7075
X5.1859Y-6.9932
X5.2741Y-6.6909
X5.2741Y-6.9932
X5.3641Y-6.6744
X5.3641Y-6.9932
X5.4541Y-6.6579
X5.4541Y-6.9932
X5.5141Y-6.835
X5.5191Y-7.1
X5.5341Y-6.9256
X5.5341Y-6.965
X5.5342Y-7.0057
X5.5541Y-6.825
X5.5841Y-6.795
X5.6191Y-6.755
X5.6491Y-6.72
X5.6641Y-6.81
X5.6841Y-6.695
X5.6841Y-7.1
X5.7241Y-6.68
X5.7411Y-7.122
X5.7591Y-6.655
X5.7691Y-7.07
X5.7841Y-7.125
X5.8139Y-6.9572
X5.8191Y-6.8
T2
X2.4791Y-6.85
X2.4791Y-6.95
X2.4791Y-7.05
X2.4791Y-7.15
X5.8791Y-6.85
X5.8791Y-6.95
X5.8791Y-7.05
X5.8791Y-7.15
T0
M30
